<svg width="171" height="91" viewBox="0 0 171 91" fill="none" xmlns="http://www.w3.org/2000/svg">
<g opacity="0.2">
<g clip-path="url(#clip0_297_6724)">
<rect x="71.8047" y="-1.92871" width="2" height="126" transform="rotate(29.2046 71.8047 -1.92871)" fill="white"/>
<rect x="43" y="-18.0303" width="2" height="126" transform="rotate(29.2046 43 -18.0303)" fill="white"/>
<rect x="45.5801" y="-16.5884" width="19" height="126" transform="rotate(29.2046 45.5801 -16.5884)" fill="white"/>
<rect x="67.123" y="-4.54541" width="4" height="126" transform="rotate(29.2046 67.123 -4.54541)" fill="white"/>
<rect x="198.598" y="-1.92871" width="2" height="126" transform="rotate(29.2046 198.598 -1.92871)" fill="white"/>
<rect x="169.793" y="-18.0303" width="2" height="126" transform="rotate(29.2046 169.793 -18.0303)" fill="white"/>
<rect x="172.373" y="-16.5884" width="19" height="126" transform="rotate(29.2046 172.373 -16.5884)" fill="white"/>
<rect x="193.916" y="-4.54541" width="4" height="126" transform="rotate(29.2046 193.916 -4.54541)" fill="white"/>
</g>
</g>
<defs>
<clipPath id="clip0_297_6724">
<rect width="171" height="91" rx="8" fill="white"/>
</clipPath>
</defs>
</svg>
