<svg width="219" height="32" viewBox="0 0 219 32" fill="none" xmlns="http://www.w3.org/2000/svg">
<path d="M19.7216 9.94598C25.6268 11.4917 31.9953 11.4058 37.8426 9.73131C37.9005 7.97092 37.2637 6.21053 36.1637 4.62189L35.5847 3.76316C35.4111 3.8061 35.1795 3.89198 35.0637 3.97785C29.7374 5.86705 23.7163 6.12467 18.1005 4.6219C14.1637 3.59143 9.87948 3.84904 6.17422 5.223L5.01633 5.65236C5.07422 5.78117 5.19003 5.95291 5.30581 6.03879C6.00055 7.15513 6.57949 8.35735 6.98475 9.6025C11.0374 8.74377 15.5532 8.82964 19.7216 9.94598Z" fill="#18A1F7"/>
<path d="M5.30581 22.8698L6.57949 22.3546C9.16027 21.3976 12.0074 20.9343 14.8322 20.9954C16.57 21.033 18.2994 21.269 19.9532 21.7105C20.4919 21.8523 21.0323 21.9824 21.5742 22.1011L21.5742 26.6777C19.3326 26.3686 17.0634 26.3245 14.8322 26.5375C12.5178 26.7585 10.2442 27.2562 8.08475 28.0221C7.96896 28.108 7.73738 28.1939 7.56369 28.2368L6.98475 27.3781C6.00054 25.9612 5.4216 24.4155 5.30581 22.8698Z" fill="#18A1F7"/>
<path d="M6.00052 18.9197C10.9216 17.4169 16.4216 17.2881 21.4584 18.6191C26.09 19.8213 31.011 20.036 35.6426 19.2631C35.5847 17.331 35.9321 15.4418 36.8584 13.5526C30.7795 14.8836 24.2374 14.7548 18.1584 13.1662C14.6847 12.2216 10.8637 12.2216 7.38999 13.0803C7.44788 14.9266 6.98474 16.8158 6.11632 18.662C6.11632 18.662 6.05841 18.7909 6.00052 18.9197Z" fill="#18A1F7"/>
<path d="M53.1321 25L49.1321 10.1H52.0521L55.1921 22.8H54.4321L57.7121 10.1H60.5321L63.7921 22.8H63.0321L66.1721 10.1H69.0921L65.0921 25H61.9721L58.6721 12.64H59.5521L56.2521 25H53.1321ZM70.5227 25V9.86H73.1427V16.26L72.7827 15.88C73.0361 15.2267 73.4494 14.7333 74.0227 14.4C74.6094 14.0533 75.2894 13.88 76.0627 13.88C76.8627 13.88 77.5694 14.0533 78.1827 14.4C78.8094 14.7467 79.2961 15.2333 79.6427 15.86C79.9894 16.4733 80.1627 17.1867 80.1627 18V25H77.5427V18.62C77.5427 18.14 77.4494 17.7267 77.2627 17.38C77.0761 17.0333 76.8161 16.7667 76.4827 16.58C76.1627 16.38 75.7827 16.28 75.3427 16.28C74.9161 16.28 74.5361 16.38 74.2027 16.58C73.8694 16.7667 73.6094 17.0333 73.4227 17.38C73.2361 17.7267 73.1427 18.14 73.1427 18.62V25H70.5227ZM82.3782 25V14.12H84.9982V25H82.3782ZM82.3782 12.9V10.1H84.9982V12.9H82.3782ZM86.4773 25V22.88L92.7973 15.56L93.1973 16.46H86.7573V14.12H95.5173V16.26L89.3173 23.58L88.9173 22.68H95.5573V25H86.4773ZM97.0462 25V14.12H99.6662V25H97.0462ZM97.0462 12.9V10.1H99.6662V12.9H97.0462ZM108.025 25.24C107.239 25.24 106.512 25.0867 105.845 24.78C105.192 24.46 104.672 24.0067 104.285 23.42L104.545 22.9V25H102.085V9.86H104.705V16.28L104.305 15.74C104.679 15.1533 105.185 14.7 105.825 14.38C106.465 14.0467 107.205 13.88 108.045 13.88C109.072 13.88 109.999 14.1333 110.825 14.64C111.652 15.1467 112.305 15.8267 112.785 16.68C113.279 17.5333 113.525 18.4933 113.525 19.56C113.525 20.6133 113.285 21.5733 112.805 22.44C112.325 23.3067 111.672 23.9933 110.845 24.5C110.019 24.9933 109.079 25.24 108.025 25.24ZM107.725 22.84C108.325 22.84 108.859 22.7 109.325 22.42C109.792 22.14 110.152 21.7533 110.405 21.26C110.672 20.7667 110.805 20.2 110.805 19.56C110.805 18.92 110.672 18.36 110.405 17.88C110.152 17.3867 109.792 17 109.325 16.72C108.859 16.4267 108.325 16.28 107.725 16.28C107.152 16.28 106.632 16.42 106.165 16.7C105.712 16.98 105.352 17.3733 105.085 17.88C104.832 18.3733 104.705 18.9333 104.705 19.56C104.705 20.2 104.832 20.7667 105.085 21.26C105.352 21.7533 105.712 22.14 106.165 22.42C106.632 22.7 107.152 22.84 107.725 22.84ZM115.523 25V9.86H118.143V25H115.523ZM125.722 25.24C124.602 25.24 123.622 24.9867 122.782 24.48C121.942 23.9733 121.288 23.2867 120.822 22.42C120.355 21.5533 120.122 20.5933 120.122 19.54C120.122 18.4467 120.355 17.48 120.822 16.64C121.302 15.7867 121.948 15.1133 122.762 14.62C123.588 14.1267 124.508 13.88 125.522 13.88C126.375 13.88 127.122 14.02 127.762 14.3C128.415 14.58 128.968 14.9667 129.422 15.46C129.875 15.9533 130.222 16.52 130.462 17.16C130.702 17.7867 130.822 18.4667 130.822 19.2C130.822 19.3867 130.808 19.58 130.782 19.78C130.768 19.98 130.735 20.1533 130.682 20.3H122.282V18.3H129.202L127.962 19.24C128.082 18.6267 128.048 18.08 127.862 17.6C127.688 17.12 127.395 16.74 126.982 16.46C126.582 16.18 126.095 16.04 125.522 16.04C124.975 16.04 124.488 16.18 124.062 16.46C123.635 16.7267 123.308 17.1267 123.082 17.66C122.868 18.18 122.788 18.8133 122.842 19.56C122.788 20.2267 122.875 20.82 123.102 21.34C123.342 21.8467 123.688 22.24 124.142 22.52C124.608 22.8 125.142 22.94 125.742 22.94C126.342 22.94 126.848 22.8133 127.262 22.56C127.688 22.3067 128.022 21.9667 128.262 21.54L130.382 22.58C130.168 23.1 129.835 23.56 129.382 23.96C128.928 24.36 128.388 24.6733 127.762 24.9C127.148 25.1267 126.468 25.24 125.722 25.24ZM136.583 25V10.1H139.303V22.6H145.683V25H136.583ZM152.382 25.24C151.262 25.24 150.282 24.9867 149.442 24.48C148.602 23.9733 147.949 23.2867 147.482 22.42C147.015 21.5533 146.782 20.5933 146.782 19.54C146.782 18.4467 147.015 17.48 147.482 16.64C147.962 15.7867 148.609 15.1133 149.422 14.62C150.249 14.1267 151.169 13.88 152.182 13.88C153.035 13.88 153.782 14.02 154.422 14.3C155.075 14.58 155.629 14.9667 156.082 15.46C156.535 15.9533 156.882 16.52 157.122 17.16C157.362 17.7867 157.482 18.4667 157.482 19.2C157.482 19.3867 157.469 19.58 157.442 19.78C157.429 19.98 157.395 20.1533 157.342 20.3H148.942V18.3H155.862L154.622 19.24C154.742 18.6267 154.709 18.08 154.522 17.6C154.349 17.12 154.055 16.74 153.642 16.46C153.242 16.18 152.755 16.04 152.182 16.04C151.635 16.04 151.149 16.18 150.722 16.46C150.295 16.7267 149.969 17.1267 149.742 17.66C149.529 18.18 149.449 18.8133 149.502 19.56C149.449 20.2267 149.535 20.82 149.762 21.34C150.002 21.8467 150.349 22.24 150.802 22.52C151.269 22.8 151.802 22.94 152.402 22.94C153.002 22.94 153.509 22.8133 153.922 22.56C154.349 22.3067 154.682 21.9667 154.922 21.54L157.042 22.58C156.829 23.1 156.495 23.56 156.042 23.96C155.589 24.36 155.049 24.6733 154.422 24.9C153.809 25.1267 153.129 25.24 152.382 25.24ZM162.729 25.24C161.969 25.24 161.309 25.1133 160.749 24.86C160.189 24.6067 159.756 24.2467 159.449 23.78C159.142 23.3 158.989 22.7467 158.989 22.12C158.989 21.52 159.122 20.9867 159.389 20.52C159.656 20.04 160.069 19.64 160.629 19.32C161.189 19 161.896 18.7733 162.749 18.64L166.309 18.06V20.06L163.249 20.58C162.729 20.6733 162.342 20.84 162.089 21.08C161.836 21.32 161.709 21.6333 161.709 22.02C161.709 22.3933 161.849 22.6933 162.129 22.92C162.422 23.1333 162.782 23.24 163.209 23.24C163.756 23.24 164.236 23.1267 164.649 22.9C165.076 22.66 165.402 22.3333 165.629 21.92C165.869 21.5067 165.989 21.0533 165.989 20.56V17.76C165.989 17.2933 165.802 16.9067 165.429 16.6C165.069 16.28 164.589 16.12 163.989 16.12C163.429 16.12 162.929 16.2733 162.489 16.58C162.062 16.8733 161.749 17.2667 161.549 17.76L159.409 16.72C159.622 16.1467 159.956 15.6533 160.409 15.24C160.876 14.8133 161.422 14.48 162.049 14.24C162.676 14 163.356 13.88 164.089 13.88C164.982 13.88 165.769 14.0467 166.449 14.38C167.129 14.7 167.656 15.1533 168.029 15.74C168.416 16.3133 168.609 16.9867 168.609 17.76V25H166.129V23.14L166.689 23.1C166.409 23.5667 166.076 23.96 165.689 24.28C165.302 24.5867 164.862 24.8267 164.369 25C163.876 25.16 163.329 25.24 162.729 25.24ZM171.031 25V14.12H173.491V16.54L173.291 16.18C173.544 15.3667 173.937 14.8 174.471 14.48C175.017 14.16 175.671 14 176.431 14H177.071V16.32H176.131C175.384 16.32 174.784 16.5533 174.331 17.02C173.877 17.4733 173.651 18.1133 173.651 18.94V25H171.031ZM178.511 25V14.12H180.971V16.26L180.771 15.88C181.024 15.2267 181.438 14.7333 182.011 14.4C182.598 14.0533 183.278 13.88 184.051 13.88C184.851 13.88 185.558 14.0533 186.171 14.4C186.798 14.7467 187.284 15.2333 187.631 15.86C187.978 16.4733 188.151 17.1867 188.151 18V25H185.531V18.62C185.531 18.14 185.438 17.7267 185.251 17.38C185.064 17.0333 184.804 16.7667 184.471 16.58C184.151 16.38 183.771 16.28 183.331 16.28C182.904 16.28 182.524 16.38 182.191 16.58C181.858 16.7667 181.598 17.0333 181.411 17.38C181.224 17.7267 181.131 18.14 181.131 18.62V25H178.511ZM190.366 25V14.12H192.986V25H190.366ZM190.366 12.9V10.1H192.986V12.9H190.366ZM195.406 25V14.12H197.866V16.26L197.666 15.88C197.919 15.2267 198.332 14.7333 198.906 14.4C199.492 14.0533 200.172 13.88 200.946 13.88C201.746 13.88 202.452 14.0533 203.066 14.4C203.692 14.7467 204.179 15.2333 204.526 15.86C204.872 16.4733 205.046 17.1867 205.046 18V25H202.426V18.62C202.426 18.14 202.332 17.7267 202.146 17.38C201.959 17.0333 201.699 16.7667 201.366 16.58C201.046 16.38 200.666 16.28 200.226 16.28C199.799 16.28 199.419 16.38 199.086 16.58C198.752 16.7667 198.492 17.0333 198.306 17.38C198.119 17.7267 198.026 18.14 198.026 18.62V25H195.406ZM212.541 29.4C211.728 29.4 210.974 29.2667 210.281 29C209.588 28.7333 208.988 28.36 208.481 27.88C207.988 27.4133 207.628 26.86 207.401 26.22L209.841 25.3C210.001 25.8067 210.314 26.2133 210.781 26.52C211.261 26.84 211.848 27 212.541 27C213.074 27 213.541 26.9 213.941 26.7C214.354 26.5 214.674 26.2067 214.901 25.82C215.128 25.4467 215.241 24.9933 215.241 24.46V21.98L215.741 22.58C215.368 23.2333 214.868 23.7267 214.241 24.06C213.614 24.3933 212.901 24.56 212.101 24.56C211.088 24.56 210.181 24.3267 209.381 23.86C208.581 23.3933 207.954 22.7533 207.501 21.94C207.048 21.1267 206.821 20.2133 206.821 19.2C206.821 18.1733 207.048 17.26 207.501 16.46C207.954 15.66 208.574 15.0333 209.361 14.58C210.148 14.1133 211.041 13.88 212.041 13.88C212.854 13.88 213.568 14.0533 214.181 14.4C214.808 14.7333 215.328 15.22 215.741 15.86L215.381 16.52V14.12H217.861V24.46C217.861 25.4067 217.628 26.2533 217.161 27C216.708 27.7467 216.081 28.3333 215.281 28.76C214.494 29.1867 213.581 29.4 212.541 29.4ZM212.421 22.14C212.981 22.14 213.468 22.02 213.881 21.78C214.308 21.5267 214.641 21.18 214.881 20.74C215.121 20.3 215.241 19.7933 215.241 19.22C215.241 18.66 215.114 18.16 214.861 17.72C214.621 17.2667 214.288 16.9133 213.861 16.66C213.448 16.4067 212.968 16.28 212.421 16.28C211.874 16.28 211.381 16.4067 210.941 16.66C210.501 16.9133 210.154 17.2667 209.901 17.72C209.661 18.16 209.541 18.66 209.541 19.22C209.541 19.78 209.661 20.28 209.901 20.72C210.154 21.16 210.494 21.5067 210.921 21.76C211.361 22.0133 211.861 22.14 212.421 22.14Z" fill="#073D5E"/>
</svg>
