<svg width="681" height="99" viewBox="0 0 681 99" fill="none" xmlns="http://www.w3.org/2000/svg">
<path d="M74.2 24.4C65.9 24.4 59.2 27.6 54.3 33.5C54 33.9 53.4 33.9 53.1 33.5C49.3 27.8 42.9 24.5 34.8 24.5C26.7 24.5 23.1 26.5 18.8 30.4C18.3 30.8 17.5 30.4 17.5 29.8V26.7C17.5 26.3 17.2 25.9 16.7 25.9H0.799995C0.399995 25.9 0 26.2 0 26.7V86C0 86.4 0.299995 86.8 0.799995 86.8H16.7C17.1 86.8 17.5 86.5 17.5 86V52.5C17.5 45.8 22.2 41.3 29 41.3C35.8 41.3 39.5 45.7 39.5 52.3V86C39.5 86.4 39.8 86.8 40.3 86.8H56.2C56.6 86.8 57 86.5 57 86V52.5C57 45.8 61.7 41.3 68.5 41.3C75.3 41.3 79 45.7 79 52.3V86C79 86.4 79.3 86.8 79.8 86.8H95.7C96.1 86.8 96.5 86.5 96.5 86V47.1C96.5 33.5 87.7 24.6 74.4 24.6L74.2 24.4Z" fill="#0D0D0D"/>
<path d="M170.7 25.8H154.8C154.4 25.8 154 26.1 154 26.6V30.1C154 30.8 153.2 31.1 152.7 30.7C148.2 26.7 142.3 24.4 135.6 24.4C118.9 24.4 106.3 38.1 106.3 56.2C106.3 74.3 118.9 88 135.6 88C152.3 88 148.2 85.7 152.7 81.7C153.2 81.3 154 81.7 154 82.3V85.8C154 86.2 154.3 86.6 154.8 86.6H170.7C171.1 86.6 171.5 86.3 171.5 85.8V26.5C171.5 26.1 171.2 25.7 170.7 25.7V25.8ZM139.2 71.3C130.7 71.3 124.4 64.9 124.4 56.3C124.4 47.7 130.7 41.3 139.2 41.3C147.6 41.3 154.1 47.9 154.1 56.3C154.1 64.9 147.8 71.3 139.2 71.3Z" fill="#0D0D0D"/>
<path d="M220.6 25.8H208.9C208.5 25.8 208.1 25.5 208.1 25V10.6C208.1 10.2 207.8 9.79999 207.3 9.79999H192.4C192 9.79999 191.6 10.1 191.6 10.6V25C191.6 25.4 191.3 25.8 190.8 25.8H182.3C181.9 25.8 181.5 26.1 181.5 26.6V40.9C181.5 41.3 181.8 41.7 182.3 41.7H189.8C190.2 41.7 190.6 42 190.6 42.5V66.9C190.6 79.9 198.1 86.7 212.5 86.7H220.4C220.8 86.7 221.2 86.4 221.2 85.9V71.6C221.2 71.2 220.9 70.8 220.4 70.8H215.1C210.6 70.8 207.9 68.3 207.9 64V42.5C207.9 42.1 208.2 41.7 208.7 41.7H220.4C220.8 41.7 221.2 41.4 221.2 40.9V26.6C221.2 26.2 220.9 25.8 220.4 25.8H220.6Z" fill="#0D0D0D"/>
<path d="M288.2 25.8H272.3C271.9 25.8 271.5 26.1 271.5 26.6V59.7C271.5 66.6 266.7 71.3 259.7 71.3C252.7 71.3 248.8 66.8 248.8 60V26.7C248.8 26.3 248.5 25.9 248 25.9H232.1C231.7 25.9 231.3 26.2 231.3 26.7V65.3C231.3 79.1 240.2 88.2 253.7 88.2C267.2 88.2 265.7 86.1 270.1 82.1C270.6 81.6 271.4 82.1 271.4 82.7V86C271.4 86.4 271.7 86.8 272.2 86.8H288.1C288.5 86.8 288.9 86.5 288.9 86V26.7C288.9 26.3 288.6 25.9 288.1 25.9L288.2 25.8Z" fill="#0D0D0D"/>
<path d="M321.6 32.7C321.1 33.2 320.3 32.9 320.3 32.2V26.6C320.3 26.2 320 25.8 319.5 25.8H303.6C303.2 25.8 302.8 26.1 302.8 26.6V85.9C302.8 86.3 303.1 86.7 303.6 86.7H319.5C319.9 86.7 320.3 86.4 320.3 85.9V58.3C320.3 48.9 326.9 42.8 338.7 42.8H341.1V24.9H338.7C332 24.9 326.2 27.7 321.7 32.7H321.6Z" fill="#0D0D0D"/>
<path d="M409 25.8H393.1C392.7 25.8 392.3 26.1 392.3 26.6V30.1C392.3 30.8 391.5 31.1 391 30.7C386.5 26.7 380.6 24.4 373.9 24.4C357.2 24.4 344.6 38.1 344.6 56.2C344.6 74.3 357.2 88 373.9 88C390.6 88 386.5 85.7 391 81.7C391.5 81.3 392.3 81.7 392.3 82.3V85.8C392.3 86.2 392.6 86.6 393.1 86.6H409C409.4 86.6 409.8 86.3 409.8 85.8V26.5C409.8 26.1 409.5 25.7 409 25.7V25.8ZM377.4 71.3C368.9 71.3 362.6 64.9 362.6 56.3C362.6 47.7 368.9 41.3 377.4 41.3C385.8 41.3 392.3 47.9 392.3 56.3C392.3 64.9 386 71.3 377.4 71.3Z" fill="#0D0D0D"/>
<path d="M460.9 24.4C453.5 24.1 447.3 26.4 442.5 31C442 31.5 441.2 31 441.2 30.4V0.799988H423.8V86.7H441.2V54C441.2 47.3 446.4 41.6 453.1 41.3C460.5 41 465.5 45.8 465.5 53.5V86C465.5 86.4 465.8 86.8 466.3 86.8H482.2C482.6 86.8 483 86.5 483 86V47.7C483 35.3 473.3 25 460.9 24.6V24.4Z" fill="#0D0D0D"/>
<path d="M544.8 0.799988H529C528.558 0.799988 528.2 1.15816 528.2 1.59998V85.9C528.2 86.3418 528.558 86.7 529 86.7H544.8C545.242 86.7 545.6 86.3418 545.6 85.9V1.59998C545.6 1.15816 545.242 0.799988 544.8 0.799988Z" fill="#0D0D0D"/>
<path d="M596.5 0H589.8C574.1 0 565.9 7.4 565.9 21.7V25C565.9 25.4 565.6 25.8 565.1 25.8H557.5C557.1 25.8 556.7 26.1 556.7 26.6V40.9C556.7 41.3 557 41.7 557.5 41.7H565.1C565.5 41.7 565.9 42 565.9 42.5V85.9C565.9 86.3 566.2 86.7 566.7 86.7H582.6C583 86.7 583.4 86.4 583.4 85.9V42.5C583.4 42.1 583.7 41.7 584.2 41.7H595.9C596.3 41.7 596.7 41.4 596.7 40.9V26.6C596.7 26.2 596.4 25.8 595.9 25.8H583.4V23.7C583.4 18.7 586.3 15.9 591.5 15.9H596.6C597 15.9 597.4 15.6 597.4 15.1V0.800003C597.4 0.400003 597.1 0 596.6 0H596.5Z" fill="#0D0D0D"/>
<path d="M634.7 24.4C616 24.4 601.9 38.1 601.9 56.2C601.9 74.3 616 88 634.8 88C653.6 88 661.3 80.1 666.1 68.4C666.3 67.9 665.9 67.3 665.4 67.3H648.3C648.1 67.3 647.9 67.4 647.7 67.6C645.2 70.8 640.7 73 635.3 73C629.9 73 623 69 620.8 62.7C620.6 62.2 621 61.7 621.5 61.7H666.3C666.7 61.7 667 61.4 667.1 61.1C667.4 59.7 667.4 57.9 667.4 56.5C667.4 37.9 653.2 24.3 634.6 24.3L634.7 24.4ZM647.9 50.3H621.7C621.2 50.3 620.8 49.8 621 49.3C623.1 43.2 628.2 39.3 634.8 39.3C641.4 39.3 646.6 43.2 648.7 49.3C648.9 49.8 648.5 50.3 648 50.3H647.9Z" fill="#0D0D0D"/>
<path d="M509.5 86.1C508.9 86.7 508.2 87 507.3 87C506.4 87 505.7 86.7 505.1 86.1C504.5 86.7 503.8 87 502.9 87C502 87 501.3 86.7 500.7 86.1C500.1 86.7 499.4 87 498.5 87C497.6 87 497.7 87 497.3 86.8L501.6 92.8C502.5 92.4 503.7 92.2 505 92.2C506.3 92.2 507.5 92.4 508.4 92.8C508.4 92.8 512.7 86.9 512.7 86.8C512.3 87 511.9 87 511.5 87C510.7 87 509.9 86.7 509.3 86.1H509.5Z" fill="white"/>
<path d="M498.7 85.1C499.4 85.1 500 84.5 500 83.8V17.9H497.5V83.8C497.5 84.5 498.1 85.1 498.8 85.1H498.7Z" fill="#F9C137"/>
<path d="M503 85.1C503.7 85.1 504.3 84.5 504.3 83.8V17.9H501.8V83.8C501.8 84.5 502.4 85.1 503.1 85.1H503Z" fill="#F9C137"/>
<path d="M507.4 85.1C508.1 85.1 508.7 84.5 508.7 83.8V17.9H506.2V83.8C506.2 84.5 506.8 85.1 507.5 85.1H507.4Z" fill="#F9C137"/>
<path d="M513 83.9V18H510.5V83.9C510.5 84.6 511.1 85.2 511.8 85.2C512.5 85.2 513.1 84.6 513.1 83.9H513Z" fill="#F9C137"/>
<path d="M513 13.1H497.4V16.2H513V13.1Z" fill="#9C9B9B"/>
<path d="M513 2.79998C513 2.69998 513 2.59998 512.8 2.59998H497.6C497.5 2.59998 497.4 2.59998 497.4 2.79998V11.3H513V2.79998Z" fill="#EA5A58"/>
<path d="M513.2 0.799988H497.2C496.3 0.799988 495.6 1.49999 495.6 2.39999V86.5C495.6 87.2 495.9 87.8 496.3 88.2L503.4 98H503.5C504 98.6 504.5 98.8 505.1 98.8C505.7 98.8 506.4 98.5 507 98L514.1 88.2C514.6 87.7 514.8 87.1 514.8 86.5V16.7V2.39999C514.8 1.49999 514.1 0.799988 513.2 0.799988ZM508.6 92.7C507.7 92.3 506.5 92.1 505.2 92.1C503.9 92.1 502.7 92.3 501.8 92.7C501.8 92.7 497.5 86.8 497.5 86.7C497.9 86.9 498.3 86.9 498.7 86.9C499.5 86.9 500.3 86.6 500.9 86C501.5 86.6 502.2 86.9 503.1 86.9C504 86.9 504.7 86.6 505.3 86C505.9 86.6 506.6 86.9 507.5 86.9C508.4 86.9 509.1 86.6 509.7 86C510.3 86.6 511 86.9 511.9 86.9C512.8 86.9 512.7 86.9 513.1 86.7L508.8 92.7H508.6ZM497.4 13.1H513V16.2H497.4V13.1ZM497.4 2.79999C497.4 2.69999 497.4 2.59998 497.6 2.59998H512.8C512.9 2.59998 513 2.59999 513 2.79999V11.3H497.4V2.79999ZM508.6 18V83.9C508.6 84.6 508 85.2 507.3 85.2C506.6 85.2 506 84.6 506 83.9V18H508.5H508.6ZM504.3 18V83.9C504.3 84.6 503.7 85.2 503 85.2C502.3 85.2 501.7 84.6 501.7 83.9V18H504.2H504.3ZM497.4 18H499.9V83.9C499.9 84.6 499.3 85.2 498.6 85.2C497.9 85.2 497.3 84.6 497.3 83.9V18H497.4ZM510.5 83.9V18H513V83.9C513 84.6 512.4 85.2 511.7 85.2C511 85.2 510.4 84.6 510.4 83.9H510.5Z" fill="#0D0D0D"/>
<path d="M665.3 24.4C665.3 20.1 668.5 16.8 672.9 16.8C677.3 16.8 680.4 20 680.4 24.4C680.4 28.8 677.2 31.9 672.9 31.9C668.6 31.9 665.3 28.7 665.3 24.4ZM678.4 24.4C678.4 21.2 676 18.8 672.9 18.8C669.8 18.8 667.3 21.2 667.3 24.4C667.3 27.6 669.7 30 672.9 30C676.1 30 678.4 27.6 678.4 24.4ZM670.4 20.3H673.3C674.8 20.3 675.9 21.4 675.9 22.9C675.9 24.4 675.4 24.7 674.7 25.1L676.2 28H674.3L673 25.5H672.3V28H670.4V20.4V20.3ZM672.3 22V23.8H673.2C673.7 23.8 674.1 23.4 674.1 22.9C674.1 22.4 673.7 22 673.2 22H672.3Z" fill="#0D0D0D"/>
</svg>
