<?xml version="1.0" encoding="UTF-8"?>
<svg xmlns="http://www.w3.org/2000/svg" version="1.1" viewBox="0 0 841.9 234.7">
  <defs>
    <style>
      .cls-1 {
        fill: #ea5a58;
      }

      .cls-2 {
        fill: #fff;
      }

      .cls-3 {
        fill: #9c9b9b;
      }

      .cls-4 {
        fill: #0d0d0d;
      }

      .cls-5 {
        fill: none;
      }

      .cls-6 {
        fill: #f9c137;
      }
    </style>
  </defs>
  <!-- Generator: Adobe Illustrator 28.7.1, SVG Export Plug-In . SVG Version: 1.2.0 Build 142)  -->
  <g>
    <g id="Ebene_1">
      <g>
        <path class="cls-5" d="M443.2,110.8c-8.5,0-14.8,6.4-14.8,15s6.3,15,14.8,15,14.9-6.4,14.9-15c0-8.4-6.5-15-14.9-15Z"/>
        <path class="cls-5" d="M205,110.8c-8.5,0-14.8,6.4-14.8,15s6.3,15,14.8,15,14.9-6.4,14.9-15c0-8.4-6.5-15-14.9-15Z"/>
        <path class="cls-5" d="M700.5,108.9c-6.6,0-11.6,3.9-13.8,10-.2.5.2,1,.7,1h26.2c.5,0,.9-.5.7-1-2.1-6.1-7.3-10-13.9-10Z"/>
        <path class="cls-4" d="M140,94c-8.3,0-15,3.2-19.9,9.1-.3.4-.9.4-1.2,0-3.8-5.7-10.2-9-18.3-9s-11.7,2-16,5.9c-.5.4-1.3,0-1.3-.6v-3.1c0-.4-.3-.8-.8-.8h-15.9c-.4,0-.8.3-.8.8v59.3c0,.4.3.8.8.8h15.9c.4,0,.8-.3.8-.8v-33.5c0-6.7,4.7-11.2,11.5-11.2s10.5,4.4,10.5,11v33.7c0,.4.3.8.8.8h15.9c.4,0,.8-.3.8-.8v-33.5c0-6.7,4.7-11.2,11.5-11.2s10.5,4.4,10.5,11v33.7c0,.4.3.8.8.8h15.9c.4,0,.8-.3.8-.8v-38.9c0-13.6-8.8-22.5-22.1-22.5Z"/>
        <path class="cls-4" d="M236.5,95.4h-15.9c-.4,0-.8.3-.8.8v3.5c0,.7-.8,1-1.3.6-4.5-4-10.4-6.3-17.1-6.3-16.7,0-29.3,13.7-29.3,31.8s12.6,31.8,29.3,31.8,12.6-2.3,17.1-6.3c.5-.4,1.3,0,1.3.6v3.5c0,.4.3.8.8.8h15.9c.4,0,.8-.3.8-.8v-59.3c0-.4-.3-.8-.8-.8ZM205,140.9c-8.5,0-14.8-6.4-14.8-15s6.3-15,14.8-15c8.4,0,14.9,6.6,14.9,15,0,8.6-6.3,15-14.9,15Z"/>
        <path class="cls-4" d="M286.4,95.4h-11.7c-.4,0-.8-.3-.8-.8v-14.4c0-.4-.3-.8-.8-.8h-14.9c-.4,0-.8.3-.8.8v14.4c0,.4-.3.8-.8.8h-8.5c-.4,0-.8.3-.8.8v14.3c0,.4.3.8.8.8h7.5c.4,0,.8.3.8.8v24.4c0,13,7.5,19.8,21.9,19.8h7.9c.4,0,.8-.3.8-.8v-14.3c0-.4-.3-.8-.8-.8h-5.3c-4.5,0-7.2-2.5-7.2-6.8v-21.5c0-.4.3-.8.8-.8h11.7c.4,0,.8-.3.8-.8v-14.3c0-.4-.3-.8-.8-.8Z"/>
        <path class="cls-4" d="M354,95.4h-15.9c-.4,0-.8.3-.8.8v33.1c0,6.9-4.8,11.6-11.8,11.6s-10.9-4.5-10.9-11.3v-33.3c0-.4-.3-.8-.8-.8h-15.9c-.4,0-.8.3-.8.8v38.6c0,13.8,8.9,22.9,22.4,22.9s12-2.1,16.4-6.1c.5-.5,1.3,0,1.3.6v3.3c0,.4.3.8.8.8h15.9c.4,0,.8-.3.8-.8v-59.3c0-.4-.3-.8-.8-.8Z"/>
        <path class="cls-4" d="M387.4,102.3c-.5.5-1.3.2-1.3-.5v-5.6c0-.4-.3-.8-.8-.8h-15.9c-.4,0-.8.3-.8.8v59.3c0,.4.3.8.8.8h15.9c.4,0,.8-.3.8-.8v-27.6c0-9.4,6.6-15.5,18.4-15.5h2.4v-17.9h-2.4c-6.7,0-12.5,2.8-17,7.8Z"/>
        <path class="cls-4" d="M474.8,95.4h-15.9c-.4,0-.8.3-.8.8v3.5c0,.7-.8,1-1.3.6-4.5-4-10.4-6.3-17.1-6.3-16.7,0-29.3,13.7-29.3,31.8s12.6,31.8,29.3,31.8,12.6-2.3,17.1-6.3c.5-.4,1.3,0,1.3.6v3.5c0,.4.3.8.8.8h15.9c.4,0,.8-.3.8-.8v-59.3c0-.4-.3-.8-.8-.8ZM443.2,140.9c-8.5,0-14.8-6.4-14.8-15s6.3-15,14.8-15c8.4,0,14.9,6.6,14.9,15,0,8.6-6.3,15-14.9,15Z"/>
        <path class="cls-4" d="M526.7,94c-7.4-.3-13.6,2-18.4,6.6-.5.5-1.3,0-1.3-.6v-29.6h-17.4v85.9h17.4v-32.7c0-6.7,5.2-12.4,11.9-12.7,7.4-.3,12.4,4.5,12.4,12.2v32.5c0,.4.3.8.8.8h15.9c.4,0,.8-.3.8-.8v-38.3c0-12.4-9.7-22.7-22.1-23.1Z"/>
        <rect class="cls-4" x="594" y="70.4" width="17.4" height="85.9" rx=".8" ry=".8"/>
        <path class="cls-4" d="M662.3,69.6h-6.7c-15.7,0-23.9,7.4-23.9,21.7v3.3c0,.4-.3.8-.8.8h-7.6c-.4,0-.8.3-.8.8v14.3c0,.4.3.8.8.8h7.6c.4,0,.8.3.8.8v43.4c0,.4.3.8.8.8h15.9c.4,0,.8-.3.8-.8v-43.4c0-.4.3-.8.8-.8h11.7c.4,0,.8-.3.8-.8v-14.3c0-.4-.3-.8-.8-.8h-12.5v-2.1c0-5,2.9-7.8,8.1-7.8h5.1c.4,0,.8-.3.8-.8v-14.3c0-.4-.3-.8-.8-.8Z"/>
        <path class="cls-4" d="M700.5,94c-18.7,0-32.8,13.7-32.8,31.8s14.1,31.8,32.9,31.8,26.5-7.9,31.3-19.6c.2-.5-.2-1.1-.7-1.1h-17.1c-.2,0-.4.1-.6.3-2.5,3.2-7,5.4-12.4,5.4s-12.3-4-14.5-10.3c-.2-.5.2-1,.7-1h44.8c.4,0,.7-.3.8-.6.3-1.4.3-3.2.3-4.6,0-18.6-14.2-32.2-32.8-32.2ZM713.7,119.9h-26.2c-.5,0-.9-.5-.7-1,2.1-6.1,7.2-10,13.8-10s11.8,3.9,13.9,10c.2.5-.2,1-.7,1Z"/>
        <path class="cls-2" d="M575.3,155.7c-.6.6-1.3.9-2.2.9s-1.6-.3-2.2-.9c-.6.6-1.3.9-2.2.9s-1.6-.3-2.2-.9c-.6.6-1.3.9-2.2.9s-.8,0-1.2-.2c0,0,4.3,6,4.3,6,.9-.4,2.1-.6,3.4-.6s2.5.2,3.4.6c0,0,4.3-5.9,4.3-6-.4.2-.8.2-1.2.2-.8,0-1.6-.3-2.2-.9Z"/>
        <path class="cls-6" d="M564.5,154.7c.7,0,1.3-.6,1.3-1.3v-65.9h-2.5v65.9c0,.7.6,1.3,1.3,1.3Z"/>
        <path class="cls-6" d="M568.8,154.7c.7,0,1.3-.6,1.3-1.3v-65.9h-2.5v65.9c0,.7.6,1.3,1.3,1.3Z"/>
        <path class="cls-6" d="M573.2,154.7c.7,0,1.3-.6,1.3-1.3v-65.9h-2.5v65.9c0,.7.6,1.3,1.3,1.3Z"/>
        <path class="cls-6" d="M578.8,153.5v-65.9h-2.5v65.9s0,0,0,0c0,.7.6,1.3,1.3,1.3s1.3-.6,1.3-1.3Z"/>
        <rect class="cls-3" x="563.2" y="82.7" width="15.6" height="3.1"/>
        <path class="cls-1" d="M578.8,72.4c0-.1,0-.2-.2-.2h-15.2c-.1,0-.2,0-.2.2v8.5h15.6v-8.5Z"/>
        <path class="cls-4" d="M579,70.4h-16c-.9,0-1.6.7-1.6,1.6v84.1c0,.7.3,1.3.7,1.7l7.1,9.8h.1c.5.6,1,.8,1.6.8s1.3-.3,1.9-.8l7.1-9.8c.5-.5.7-1.1.7-1.7v-69.8s0-14.3,0-14.3c0-.9-.7-1.6-1.6-1.6ZM574.4,162.3c-.9-.4-2.1-.6-3.4-.6s-2.5.2-3.4.6c0,0-4.3-5.9-4.3-6,.4.2.8.2,1.2.2.8,0,1.6-.3,2.2-.9.6.6,1.3.9,2.2.9s1.6-.3,2.2-.9c.6.6,1.3.9,2.2.9s1.6-.3,2.2-.9c.6.6,1.3.9,2.2.9s.8,0,1.2-.2c0,0-4.3,6-4.3,6ZM563.2,82.7h15.6v3.1h-15.6v-3.1ZM563.2,72.4c0-.1,0-.2.2-.2h15.2c.1,0,.2,0,.2.2v8.5h-15.6v-8.5ZM574.4,87.6v65.9c0,.7-.6,1.3-1.3,1.3s-1.3-.6-1.3-1.3v-65.9h2.5ZM570.1,87.6v65.9c0,.7-.6,1.3-1.3,1.3s-1.3-.6-1.3-1.3v-65.9h2.5ZM563.2,87.6h2.5v65.9c0,.7-.6,1.3-1.3,1.3s-1.3-.6-1.3-1.3v-65.9ZM576.3,153.5s0,0,0,0v-65.9h2.5v65.9c0,.7-.6,1.3-1.3,1.3s-1.3-.6-1.3-1.3Z"/>
        <g>
          <path class="cls-4" d="M237.4,188.5c0,0,0-.1,0-.2v-14.9c0,0,0-.1,0-.2,0,0,.1,0,.2,0h2.6c0,0,.1,0,.2,0s0,.1,0,.2v14.9c0,0,0,.1,0,.2,0,0-.1,0-.2,0h-2.6c0,0-.1,0-.2,0Z"/>
          <path class="cls-4" d="M255.3,182.9v.9c0,.2-.1.3-.3.3h-5.8c0,0-.1,0-.1.1,0,.3,0,.6,0,.7,0,.4.3.7.5,1,.3.2.6.4,1.1.4.7,0,1.2-.3,1.5-1,0-.1.2-.2.3-.2l2.3.5c.2,0,.2.2.2.3-.3,1-.9,1.7-1.6,2.2-.7.5-1.7.8-2.7.8s-2.3-.3-3.1-.9-1.3-1.4-1.5-2.6c-.1-.6-.2-1.5-.2-2.7s0-1.3.1-1.8c.2-1.1.6-2,1.5-2.7.8-.7,1.8-1,3.1-1s2.4.4,3.3,1.1,1.3,1.7,1.4,3c0,.5,0,1,0,1.6ZM249.6,180.2c-.3.2-.4.6-.5,1,0,.3,0,.5,0,.8s0,.1.1.1h2.9c0,0,.1,0,.1-.1,0-.3,0-.6,0-.8,0-.4-.2-.7-.5-1s-.6-.4-1-.4-.7.1-1,.4Z"/>
          <path class="cls-4" d="M267.1,177.4c.1,0,.2.2.1.4l-.4,2.5c0,.2-.1.2-.3.2-.2,0-.4,0-.6,0s-.4,0-.6,0c-.4,0-.8.3-1.1.6-.3.4-.4.8-.4,1.3v6c0,0,0,.1,0,.2,0,0-.1,0-.2,0h-2.6c0,0-.1,0-.2,0,0,0,0-.1,0-.2v-10.8c0,0,0-.1,0-.2s.1,0,.2,0h2.6c0,0,.1,0,.2,0,0,0,0,.1,0,.2v.9c0,0,0,0,0,0s0,0,0,0c.5-.9,1.2-1.3,2.2-1.3s.8,0,1.1.3Z"/>
          <path class="cls-4" d="M280.3,178.2c.6.7.9,1.6.9,2.8v7.3c0,0,0,.1,0,.2,0,0-.1,0-.2,0h-2.6c0,0-.1,0-.2,0,0,0,0-.1,0-.2v-6.9c0-.5-.1-.9-.4-1.2-.2-.3-.6-.4-1-.4s-.8.2-1,.5-.4.7-.4,1.2v6.9c0,0,0,.1,0,.2,0,0-.1,0-.2,0h-2.6c0,0-.1,0-.2,0,0,0,0-.1,0-.2v-10.8c0,0,0-.1,0-.2s.1,0,.2,0h2.6c0,0,.1,0,.2,0,0,0,0,.1,0,.2v.6s0,0,0,0c0,0,0,0,.1,0,.5-.7,1.3-1.1,2.3-1.1s1.9.3,2.5,1Z"/>
          <path class="cls-4" d="M296,182.9v.9c0,.2-.1.3-.3.3h-5.8c0,0-.1,0-.1.1,0,.3,0,.6,0,.7,0,.4.3.7.5,1,.3.2.6.4,1.1.4.7,0,1.2-.3,1.5-1,0-.1.2-.2.3-.2l2.3.5c.2,0,.2.2.2.3-.3,1-.9,1.7-1.6,2.2-.7.5-1.7.8-2.7.8s-2.3-.3-3.1-.9-1.3-1.4-1.5-2.6c-.1-.6-.2-1.5-.2-2.7s0-1.3.1-1.8c.2-1.1.6-2,1.5-2.7.8-.7,1.8-1,3.1-1s2.4.4,3.3,1.1,1.3,1.7,1.4,3c0,.5,0,1,0,1.6ZM290.3,180.2c-.3.2-.4.6-.5,1,0,.3,0,.5,0,.8s0,.1.1.1h2.9c0,0,.1,0,.1-.1,0-.3,0-.6,0-.8,0-.4-.2-.7-.5-1s-.6-.4-1-.4-.7.1-1,.4Z"/>
          <path class="cls-4" d="M309.5,178.2c.6.7.9,1.6.9,2.8v7.3c0,0,0,.1,0,.2,0,0-.1,0-.2,0h-2.6c0,0-.1,0-.2,0,0,0,0-.1,0-.2v-6.9c0-.5-.1-.9-.4-1.2-.2-.3-.6-.4-1-.4s-.8.2-1,.5-.4.7-.4,1.2v6.9c0,0,0,.1,0,.2,0,0-.1,0-.2,0h-2.6c0,0-.1,0-.2,0,0,0,0-.1,0-.2v-10.8c0,0,0-.1,0-.2s.1,0,.2,0h2.6c0,0,.1,0,.2,0,0,0,0,.1,0,.2v.6s0,0,0,0c0,0,0,0,.1,0,.5-.7,1.3-1.1,2.3-1.1s1.9.3,2.5,1Z"/>
          <path class="cls-4" d="M326.7,188.4l-3.1-10.8h0c0-.2,0-.3.2-.3h2.8c.2,0,.3,0,.3.2l1.4,6.6c0,0,0,0,0,0s0,0,0,0l1.4-6.6c0-.2.1-.2.3-.2h2.8c.2,0,.3.1.2.3l-3,10.8c0,.1-.1.2-.3.2h-2.9c-.2,0-.3,0-.3-.2Z"/>
          <path class="cls-4" d="M347,182.9v.9c0,.2-.1.3-.3.3h-5.8c0,0-.1,0-.1.1,0,.3,0,.6,0,.7,0,.4.3.7.5,1,.3.2.6.4,1.1.4.7,0,1.2-.3,1.5-1,0-.1.2-.2.3-.2l2.3.5c.2,0,.2.2.2.3-.3,1-.9,1.7-1.6,2.2-.7.5-1.7.8-2.7.8s-2.3-.3-3.1-.9-1.3-1.4-1.5-2.6c-.1-.6-.2-1.5-.2-2.7s0-1.3.1-1.8c.2-1.1.6-2,1.5-2.7.8-.7,1.8-1,3.1-1s2.4.4,3.3,1.1,1.3,1.7,1.4,3c0,.5,0,1,0,1.6ZM341.3,180.2c-.3.2-.4.6-.5,1,0,.3,0,.5,0,.8s0,.1.1.1h2.9c0,0,.1,0,.1-.1,0-.3,0-.6,0-.8,0-.4-.2-.7-.5-1s-.6-.4-1-.4-.7.1-1,.4Z"/>
          <path class="cls-4" d="M358.8,177.4c.1,0,.2.2.1.4l-.4,2.5c0,.2-.1.2-.3.2-.2,0-.4,0-.6,0s-.4,0-.6,0c-.4,0-.8.3-1.1.6-.3.4-.4.8-.4,1.3v6c0,0,0,.1,0,.2,0,0-.1,0-.2,0h-2.6c0,0-.1,0-.2,0,0,0,0-.1,0-.2v-10.8c0,0,0-.1,0-.2s.1,0,.2,0h2.6c0,0,.1,0,.2,0,0,0,0,.1,0,.2v.9c0,0,0,0,0,0s0,0,0,0c.5-.9,1.2-1.3,2.2-1.3s.8,0,1.1.3Z"/>
          <path class="cls-4" d="M364.7,187.9c-.8-.6-1.2-1.4-1.2-2.4v-.2c0,0,0-.1,0-.2,0,0,.1,0,.2,0h2.4c0,0,.1,0,.2,0s0,.1,0,.2h0c0,.4.1.6.4.8.3.2.7.3,1.1.3s.7,0,.9-.3c.2-.2.4-.4.4-.7s-.1-.5-.4-.6c-.3-.1-.7-.3-1.2-.5-.2,0-.6-.2-1.1-.4-.9-.3-1.6-.7-2.1-1.2s-.8-1.2-.8-2.2.4-1.9,1.2-2.5,1.8-.9,3.1-.9,2.4.3,3.2,1c.8.7,1.2,1.5,1.2,2.6s0,.2-.3.2h-2.4c0,0-.1,0-.2,0,0,0,0-.1,0-.2h0c0-.4-.1-.6-.4-.8-.2-.2-.6-.3-1-.3s-.7,0-1,.3c-.2.2-.4.4-.4.7s.1.5.4.7c.3.2.7.3,1.3.5.1,0,.3,0,.4.1.1,0,.2,0,.3.1,1,.3,1.8.7,2.4,1.2.6.5.9,1.2.9,2.1s-.4,1.9-1.2,2.5c-.8.6-1.9.9-3.2.9s-2.4-.3-3.3-.9Z"/>
          <path class="cls-4" d="M383.3,179.6c0,0-.1,0-.2,0h-1.7c0,0-.1,0-.1.1v4.9c0,.5,0,.8.3,1s.5.3.8.3h.4c0,0,.1,0,.2,0,0,0,0,.1,0,.2v2.1c0,.2,0,.3-.3.3-.2,0-.6,0-1.1,0-1.2,0-2-.2-2.6-.6s-.8-1.1-.8-2.2v-6.2c0,0,0-.1-.1-.1h-1c0,0-.1,0-.2,0,0,0,0-.1,0-.2v-1.8c0,0,0-.1,0-.2s.1,0,.2,0h1c0,0,.1,0,.1-.1v-2.5c0,0,0-.1,0-.2,0,0,.1,0,.2,0h2.4c0,0,.1,0,.2,0s0,.1,0,.2v2.5c0,0,0,.1.1.1h1.7c0,0,.1,0,.2,0,0,0,0,.1,0,.2v1.8c0,0,0,.1,0,.2Z"/>
          <path class="cls-4" d="M397.7,182.9v.9c0,.2-.1.3-.3.3h-5.8c0,0-.1,0-.1.1,0,.3,0,.6,0,.7,0,.4.3.7.5,1,.3.2.6.4,1.1.4.7,0,1.2-.3,1.5-1,0-.1.2-.2.3-.2l2.3.5c.2,0,.2.2.2.3-.3,1-.9,1.7-1.6,2.2-.7.5-1.7.8-2.7.8s-2.3-.3-3.1-.9-1.3-1.4-1.5-2.6c-.1-.6-.2-1.5-.2-2.7s0-1.3.1-1.8c.2-1.1.6-2,1.5-2.7.8-.7,1.8-1,3.1-1s2.4.4,3.3,1.1,1.3,1.7,1.4,3c0,.5,0,1,0,1.6ZM392.1,180.2c-.3.2-.4.6-.5,1,0,.3,0,.5,0,.8s0,.1.1.1h2.9c0,0,.1,0,.1-.1,0-.3,0-.6,0-.8,0-.4-.2-.7-.5-1s-.6-.4-1-.4-.7.1-1,.4Z"/>
          <path class="cls-4" d="M411.2,178.2c.6.7.9,1.6.9,2.8v7.3c0,0,0,.1,0,.2,0,0-.1,0-.2,0h-2.6c0,0-.1,0-.2,0,0,0,0-.1,0-.2v-6.9c0-.5-.1-.9-.4-1.2-.2-.3-.6-.4-1-.4s-.8.2-1,.5-.4.7-.4,1.2v6.9c0,0,0,.1,0,.2,0,0-.1,0-.2,0h-2.6c0,0-.1,0-.2,0,0,0,0-.1,0-.2v-14.9c0,0,0-.1,0-.2,0,0,.1,0,.2,0h2.6c0,0,.1,0,.2,0s0,.1,0,.2v4.7s0,0,0,0c0,0,0,0,.1,0,.5-.7,1.3-1.1,2.3-1.1s1.9.3,2.5,1Z"/>
          <path class="cls-4" d="M426.9,182.9v.9c0,.2-.1.3-.3.3h-5.8c0,0-.1,0-.1.1,0,.3,0,.6,0,.7,0,.4.3.7.5,1,.3.2.6.4,1.1.4.7,0,1.2-.3,1.5-1,0-.1.2-.2.3-.2l2.3.5c.2,0,.2.2.2.3-.3,1-.9,1.7-1.6,2.2-.7.5-1.7.8-2.7.8s-2.3-.3-3.1-.9-1.3-1.4-1.5-2.6c-.1-.6-.2-1.5-.2-2.7s0-1.3.1-1.8c.2-1.1.6-2,1.5-2.7.8-.7,1.8-1,3.1-1s2.4.4,3.3,1.1,1.3,1.7,1.4,3c0,.5,0,1,0,1.6ZM421.3,180.2c-.3.2-.4.6-.5,1,0,.3,0,.5,0,.8s0,.1.1.1h2.9c0,0,.1,0,.1-.1,0-.3,0-.6,0-.8,0-.4-.2-.7-.5-1s-.6-.4-1-.4-.7.1-1,.4Z"/>
          <path class="cls-4" d="M440.4,178.2c.6.7.9,1.6.9,2.8v7.3c0,0,0,.1,0,.2,0,0-.1,0-.2,0h-2.6c0,0-.1,0-.2,0,0,0,0-.1,0-.2v-6.9c0-.5-.1-.9-.4-1.2-.2-.3-.6-.4-1-.4s-.8.2-1,.5-.4.7-.4,1.2v6.9c0,0,0,.1,0,.2,0,0-.1,0-.2,0h-2.6c0,0-.1,0-.2,0,0,0,0-.1,0-.2v-10.8c0,0,0-.1,0-.2s.1,0,.2,0h2.6c0,0,.1,0,.2,0,0,0,0,.1,0,.2v.6s0,0,0,0c0,0,0,0,.1,0,.5-.7,1.3-1.1,2.3-1.1s1.9.3,2.5,1Z"/>
          <path class="cls-4" d="M464.3,182.9c0,1,0,1.8-.2,2.4-.5,2.3-1.6,3.5-3.4,3.5s-1.8-.3-2.3-.9c0,0,0,0,0,0,0,0,0,0,0,0v.5c0,0,0,.1,0,.2,0,0-.1,0-.2,0h-2.6c0,0-.1,0-.2,0,0,0,0-.1,0-.2v-14.9c0,0,0-.1,0-.2,0,0,.1,0,.2,0h2.6c0,0,.1,0,.2,0s0,.1,0,.2v4.5s0,0,0,0c0,0,0,0,0,0,.3-.3.6-.6,1-.7.4-.1.8-.2,1.3-.2,1,0,1.7.3,2.3.9.6.6,1,1.4,1.2,2.5.1.6.2,1.4.2,2.3ZM461.2,182.9c0-.9,0-1.5-.2-2-.2-.8-.7-1.2-1.3-1.2s-1.1.4-1.3,1.2c-.1.5-.2,1.2-.2,1.9s0,1.5.2,1.9c.2.9.6,1.3,1.3,1.3s1.2-.4,1.4-1.3c.1-.5.2-1.1.2-1.9Z"/>
          <path class="cls-4" d="M479.1,182.9v.9c0,.2-.1.3-.3.3h-5.8c0,0-.1,0-.1.1,0,.3,0,.6,0,.7,0,.4.3.7.5,1,.3.2.6.4,1.1.4.7,0,1.2-.3,1.5-1,0-.1.2-.2.3-.2l2.3.5c.2,0,.2.2.2.3-.3,1-.9,1.7-1.6,2.2-.7.5-1.7.8-2.7.8s-2.3-.3-3.1-.9-1.3-1.4-1.5-2.6c-.1-.6-.2-1.5-.2-2.7s0-1.3.1-1.8c.2-1.1.6-2,1.5-2.7.8-.7,1.8-1,3.1-1s2.4.4,3.3,1.1,1.3,1.7,1.4,3c0,.5,0,1,0,1.6ZM473.4,180.2c-.3.2-.4.6-.5,1,0,.3,0,.5,0,.8s0,.1.1.1h2.9c0,0,.1,0,.1-.1,0-.3,0-.6,0-.8,0-.4-.2-.7-.5-1s-.6-.4-1-.4-.7.1-1,.4Z"/>
          <path class="cls-4" d="M485.3,187.9c-.8-.6-1.2-1.4-1.2-2.4v-.2c0,0,0-.1,0-.2,0,0,.1,0,.2,0h2.4c0,0,.1,0,.2,0s0,.1,0,.2h0c0,.4.1.6.4.8.3.2.7.3,1.1.3s.7,0,.9-.3c.2-.2.4-.4.4-.7s-.1-.5-.4-.6c-.3-.1-.7-.3-1.2-.5-.2,0-.6-.2-1.1-.4-.9-.3-1.6-.7-2.1-1.2s-.8-1.2-.8-2.2.4-1.9,1.2-2.5,1.8-.9,3.1-.9,2.4.3,3.2,1c.8.7,1.2,1.5,1.2,2.6s0,.2-.3.2h-2.4c0,0-.1,0-.2,0,0,0,0-.1,0-.2h0c0-.4-.1-.6-.4-.8-.2-.2-.6-.3-1-.3s-.7,0-1,.3c-.2.2-.4.4-.4.7s.1.5.4.7c.3.2.7.3,1.3.5.1,0,.3,0,.4.1.1,0,.2,0,.3.1,1,.3,1.8.7,2.4,1.2.6.5.9,1.2.9,2.1s-.4,1.9-1.2,2.5c-.8.6-1.9.9-3.2.9s-2.4-.3-3.3-.9Z"/>
          <path class="cls-4" d="M503.9,179.6c0,0-.1,0-.2,0h-1.7c0,0-.1,0-.1.1v4.9c0,.5,0,.8.3,1s.5.3.8.3h.4c0,0,.1,0,.2,0,0,0,0,.1,0,.2v2.1c0,.2,0,.3-.3.3-.2,0-.6,0-1.1,0-1.2,0-2-.2-2.6-.6s-.8-1.1-.8-2.2v-6.2c0,0,0-.1-.1-.1h-1c0,0-.1,0-.2,0,0,0,0-.1,0-.2v-1.8c0,0,0-.1,0-.2s.1,0,.2,0h1c0,0,.1,0,.1-.1v-2.5c0,0,0-.1,0-.2,0,0,.1,0,.2,0h2.4c0,0,.1,0,.2,0s0,.1,0,.2v2.5c0,0,0,.1.1.1h1.7c0,0,.1,0,.2,0,0,0,0,.1,0,.2v1.8c0,0,0,.1,0,.2Z"/>
          <path class="cls-4" d="M518.3,182.9v.9c0,.2-.1.3-.3.3h-5.8c0,0-.1,0-.1.1,0,.3,0,.6,0,.7,0,.4.3.7.5,1,.3.2.6.4,1.1.4.7,0,1.2-.3,1.5-1,0-.1.2-.2.3-.2l2.3.5c.2,0,.2.2.2.3-.3,1-.9,1.7-1.6,2.2-.7.5-1.7.8-2.7.8s-2.3-.3-3.1-.9-1.3-1.4-1.5-2.6c-.1-.6-.2-1.5-.2-2.7s0-1.3.1-1.8c.2-1.1.6-2,1.5-2.7.8-.7,1.8-1,3.1-1s2.4.4,3.3,1.1,1.3,1.7,1.4,3c0,.5,0,1,0,1.6ZM512.6,180.2c-.3.2-.4.6-.5,1,0,.3,0,.5,0,.8s0,.1.1.1h2.9c0,0,.1,0,.1-.1,0-.3,0-.6,0-.8,0-.4-.2-.7-.5-1s-.6-.4-1-.4-.7.1-1,.4Z"/>
          <path class="cls-4" d="M531.8,178.2c.6.7.9,1.6.9,2.8v7.3c0,0,0,.1,0,.2,0,0-.1,0-.2,0h-2.6c0,0-.1,0-.2,0,0,0,0-.1,0-.2v-6.9c0-.5-.1-.9-.4-1.2-.2-.3-.6-.4-1-.4s-.8.2-1,.5-.4.7-.4,1.2v6.9c0,0,0,.1,0,.2,0,0-.1,0-.2,0h-2.6c0,0-.1,0-.2,0,0,0,0-.1,0-.2v-14.9c0,0,0-.1,0-.2,0,0,.1,0,.2,0h2.6c0,0,.1,0,.2,0s0,.1,0,.2v4.7s0,0,0,0c0,0,0,0,.1,0,.5-.7,1.3-1.1,2.3-1.1s1.9.3,2.5,1Z"/>
          <path class="cls-4" d="M547.5,182.9v.9c0,.2-.1.3-.3.3h-5.8c0,0-.1,0-.1.1,0,.3,0,.6,0,.7,0,.4.3.7.5,1,.3.2.6.4,1.1.4.7,0,1.2-.3,1.5-1,0-.1.2-.2.3-.2l2.3.5c.2,0,.2.2.2.3-.3,1-.9,1.7-1.6,2.2-.7.5-1.7.8-2.7.8s-2.3-.3-3.1-.9-1.3-1.4-1.5-2.6c-.1-.6-.2-1.5-.2-2.7s0-1.3.1-1.8c.2-1.1.6-2,1.5-2.7.8-.7,1.8-1,3.1-1s2.4.4,3.3,1.1,1.3,1.7,1.4,3c0,.5,0,1,0,1.6ZM541.8,180.2c-.3.2-.4.6-.5,1,0,.3,0,.5,0,.8s0,.1.1.1h2.9c0,0,.1,0,.1-.1,0-.3,0-.6,0-.8,0-.4-.2-.7-.5-1s-.6-.4-1-.4-.7.1-1,.4Z"/>
          <path class="cls-4" d="M561,178.2c.6.7.9,1.6.9,2.8v7.3c0,0,0,.1,0,.2,0,0-.1,0-.2,0h-2.6c0,0-.1,0-.2,0,0,0,0-.1,0-.2v-6.9c0-.5-.1-.9-.4-1.2-.2-.3-.6-.4-1-.4s-.8.2-1,.5-.4.7-.4,1.2v6.9c0,0,0,.1,0,.2,0,0-.1,0-.2,0h-2.6c0,0-.1,0-.2,0,0,0,0-.1,0-.2v-10.8c0,0,0-.1,0-.2s.1,0,.2,0h2.6c0,0,.1,0,.2,0,0,0,0,.1,0,.2v.6s0,0,0,0c0,0,0,0,.1,0,.5-.7,1.3-1.1,2.3-1.1s1.9.3,2.5,1Z"/>
        </g>
        <path class="cls-4" d="M731.1,94c0-4.3,3.2-7.6,7.6-7.6s7.5,3.2,7.5,7.6-3.2,7.5-7.5,7.5-7.6-3.2-7.6-7.5ZM744.2,94c0-3.2-2.4-5.6-5.5-5.6s-5.6,2.4-5.6,5.6,2.4,5.6,5.6,5.6,5.5-2.4,5.5-5.6ZM736.2,89.9h2.9c1.5,0,2.6,1.1,2.6,2.6s-.5,1.8-1.2,2.2l1.5,2.9h-1.9l-1.3-2.5h-.7v2.5h-1.9v-7.6ZM738.1,91.6v1.8h.9c.5,0,.9-.4.9-.9s-.4-.9-.9-.9h-.9Z"/>
      </g>
    </g>
  </g>
</svg>