<svg version="1.2" xmlns="http://www.w3.org/2000/svg" viewBox="0 0 684 154" width="684" height="154">
	<title>maturahilfe_newLogo</title>
	<style>
		.s0 { fill: none } 
		.s1 { fill: #0d0d0d } 
		.s2 { fill: #ffffff } 
		.s3 { fill: #f9c137 } 
		.s4 { fill: #9c9b9b } 
		.s5 { fill: #ea5a58 } 
	</style>
	<g>
		<g id="Ebene_1">
			<g>
				<g id="Ordner 1">
					<path class="s0" d="m380.2 46.8c-8.5 0-14.8 6.4-14.8 15 0 8.6 6.3 15 14.8 15 8.5 0 14.9-6.4 14.9-15 0-8.4-6.5-15-14.9-15z"/>
					<path class="s1" d="m668.1 30c0-4.3 3.2-7.6 7.6-7.6 4.4 0 7.5 3.2 7.5 7.6 0 4.4-3.2 7.5-7.5 7.5-4.3 0-7.6-3.2-7.6-7.5zm13.1 0c0-3.2-2.4-5.6-5.5-5.6-3.1 0-5.6 2.4-5.6 5.6 0 3.2 2.4 5.6 5.6 5.6 3.2 0 5.5-2.4 5.5-5.6zm-8-4.1h2.9c1.5 0 2.6 1.1 2.6 2.6 0 1.5-0.5 1.8-1.2 2.2l1.5 2.9h-1.9l-1.3-2.5h-0.7v2.5h-1.9v-7.6zm1.9 1.7v1.8h0.9c0.5 0 0.9-0.4 0.9-0.9 0-0.5-0.4-0.9-0.9-0.9z"/>
					<path class="s0" d="m142 46.8c-8.5 0-14.8 6.4-14.8 15 0 8.6 6.3 15 14.8 15 8.5 0 14.9-6.4 14.9-15 0-8.4-6.5-15-14.9-15z"/>
					<path class="s0" d="m637.5 44.9c-6.6 0-11.6 3.9-13.8 10-0.2 0.5 0.2 1 0.7 1h26.2c0.5 0 0.9-0.5 0.7-1-2.1-6.1-7.3-10-13.9-10z"/>
					<path class="s1" d="m77 30c-8.3 0-15 3.2-19.9 9.1-0.3 0.4-0.9 0.4-1.2 0-3.8-5.7-10.2-9-18.3-9-8.1 0-11.7 2-16 5.9-0.5 0.4-1.3 0-1.3-0.6v-3.1c0-0.4-0.3-0.8-0.8-0.8h-15.9c-0.4 0-0.8 0.3-0.8 0.8v59.3c0 0.4 0.3 0.8 0.8 0.8h15.9c0.4 0 0.8-0.3 0.8-0.8v-33.5c0-6.7 4.7-11.2 11.5-11.2 6.8 0 10.5 4.4 10.5 11v33.7c0 0.4 0.3 0.8 0.8 0.8h15.9c0.4 0 0.8-0.3 0.8-0.8v-33.5c0-6.7 4.7-11.2 11.5-11.2 6.8 0 10.5 4.4 10.5 11v33.7c0 0.4 0.3 0.8 0.8 0.8h15.9c0.4 0 0.8-0.3 0.8-0.8v-38.9c0-13.6-8.8-22.5-22.1-22.5z"/>
					<path class="s1" d="m173.5 31.4h-15.9c-0.4 0-0.8 0.3-0.8 0.8v3.5c0 0.7-0.8 1-1.3 0.6-4.5-4-10.4-6.3-17.1-6.3-16.7 0-29.3 13.7-29.3 31.8 0 18.1 12.6 31.8 29.3 31.8 16.7 0 12.6-2.3 17.1-6.3 0.5-0.4 1.3 0 1.3 0.6v3.5c0 0.4 0.3 0.8 0.8 0.8h15.9c0.4 0 0.8-0.3 0.8-0.8v-59.3c0-0.4-0.3-0.8-0.8-0.8zm-31.5 45.5c-8.5 0-14.8-6.4-14.8-15 0-8.6 6.3-15 14.8-15 8.4 0 14.9 6.6 14.9 15 0 8.6-6.3 15-14.9 15z"/>
					<path class="s1" d="m223.4 31.4h-11.7c-0.4 0-0.8-0.3-0.8-0.8v-14.4c0-0.4-0.3-0.8-0.8-0.8h-14.9c-0.4 0-0.8 0.3-0.8 0.8v14.4c0 0.4-0.3 0.8-0.8 0.8h-8.5c-0.4 0-0.8 0.3-0.8 0.8v14.3c0 0.4 0.3 0.8 0.8 0.8h7.5c0.4 0 0.8 0.3 0.8 0.8v24.4c0 13 7.5 19.8 21.9 19.8h7.9c0.4 0 0.8-0.3 0.8-0.8v-14.3c0-0.4-0.3-0.8-0.8-0.8h-5.3c-4.5 0-7.2-2.5-7.2-6.8v-21.5c0-0.4 0.3-0.8 0.8-0.8h11.7c0.4 0 0.8-0.3 0.8-0.8v-14.3c0-0.4-0.3-0.8-0.8-0.8z"/>
					<path class="s1" d="m291 31.4h-15.9c-0.4 0-0.8 0.3-0.8 0.8v33.1c0 6.9-4.8 11.6-11.8 11.6-7 0-10.9-4.5-10.9-11.3v-33.3c0-0.4-0.3-0.8-0.8-0.8h-15.9c-0.4 0-0.8 0.3-0.8 0.8v38.6c0 13.8 8.9 22.9 22.4 22.9 13.5 0 12-2.1 16.4-6.1 0.5-0.5 1.3 0 1.3 0.6v3.3c0 0.4 0.3 0.8 0.8 0.8h15.9c0.4 0 0.8-0.3 0.8-0.8v-59.3c0-0.4-0.3-0.8-0.8-0.8z"/>
					<path class="s1" d="m324.4 38.3c-0.5 0.5-1.3 0.2-1.3-0.5v-5.6c0-0.4-0.3-0.8-0.8-0.8h-15.9c-0.4 0-0.8 0.3-0.8 0.8v59.3c0 0.4 0.3 0.8 0.8 0.8h15.9c0.4 0 0.8-0.3 0.8-0.8v-27.6c0-9.4 6.6-15.5 18.4-15.5h2.4v-17.9h-2.4c-6.7 0-12.5 2.8-17 7.8z"/>
					<path class="s1" d="m411.8 31.4h-15.9c-0.4 0-0.8 0.3-0.8 0.8v3.5c0 0.7-0.8 1-1.3 0.6-4.5-4-10.4-6.3-17.1-6.3-16.7 0-29.3 13.7-29.3 31.8 0 18.1 12.6 31.8 29.3 31.8 16.7 0 12.6-2.3 17.1-6.3 0.5-0.4 1.3 0 1.3 0.6v3.5c0 0.4 0.3 0.8 0.8 0.8h15.9c0.4 0 0.8-0.3 0.8-0.8v-59.3c0-0.4-0.3-0.8-0.8-0.8zm-31.6 45.5c-8.5 0-14.8-6.4-14.8-15 0-8.6 6.3-15 14.8-15 8.4 0 14.9 6.6 14.9 15 0 8.6-6.3 15-14.9 15z"/>
					<path class="s1" d="m463.7 30c-7.4-0.3-13.6 2-18.4 6.6-0.5 0.5-1.3 0-1.3-0.6v-29.6h-17.4v85.9h17.4v-32.7c0-6.7 5.2-12.4 11.9-12.7 7.4-0.3 12.4 4.5 12.4 12.2v32.5c0 0.4 0.3 0.8 0.8 0.8h15.9c0.4 0 0.8-0.3 0.8-0.8v-38.3c0-12.4-9.7-22.7-22.1-23.1z"/>
					<path fill-rule="evenodd" class="s1" d="m531.8 6.4h15.8c0.4 0 0.8 0.4 0.8 0.8v84.3c0 0.4-0.4 0.8-0.8 0.8h-15.8c-0.4 0-0.8-0.4-0.8-0.8v-84.3c0-0.4 0.4-0.8 0.8-0.8z"/>
					<path class="s1" d="m599.3 5.6h-6.7c-15.7 0-23.9 7.4-23.9 21.7v3.3c0 0.4-0.3 0.8-0.8 0.8h-7.6c-0.4 0-0.8 0.3-0.8 0.8v14.3c0 0.4 0.3 0.8 0.8 0.8h7.6c0.4 0 0.8 0.3 0.8 0.8v43.4c0 0.4 0.3 0.8 0.8 0.8h15.9c0.4 0 0.8-0.3 0.8-0.8v-43.4c0-0.4 0.3-0.8 0.8-0.8h11.7c0.4 0 0.8-0.3 0.8-0.8v-14.3c0-0.4-0.3-0.8-0.8-0.8h-12.5v-2.1c0-5 2.9-7.8 8.1-7.8h5.1c0.4 0 0.8-0.3 0.8-0.8v-14.3c0-0.4-0.3-0.8-0.8-0.8z"/>
					<path class="s1" d="m637.5 30c-18.7 0-32.8 13.7-32.8 31.8 0 18.1 14.1 31.8 32.9 31.8 18.8 0 26.5-7.9 31.3-19.6 0.2-0.5-0.2-1.1-0.7-1.1h-17.1q-0.3 0-0.6 0.3c-2.5 3.2-7 5.4-12.4 5.4-5.4 0-12.3-4-14.5-10.3-0.2-0.5 0.2-1 0.7-1h44.8c0.4 0 0.7-0.3 0.8-0.6 0.3-1.4 0.3-3.2 0.3-4.6 0-18.6-14.2-32.2-32.8-32.2zm13.2 25.9h-26.2c-0.5 0-0.9-0.5-0.7-1 2.1-6.1 7.2-10 13.8-10 6.6 0 11.8 3.9 13.9 10 0.2 0.5-0.2 1-0.7 1z"/>
					<path class="s2" d="m512.3 91.7c-0.6 0.6-1.3 0.9-2.2 0.9-0.9 0-1.6-0.3-2.2-0.9-0.6 0.6-1.3 0.9-2.2 0.9-0.9 0-1.6-0.3-2.2-0.9-0.6 0.6-1.3 0.9-2.2 0.9-0.9 0-0.8 0-1.2-0.2l4.3 6c0.9-0.4 2.1-0.6 3.4-0.6 1.3 0 2.5 0.2 3.4 0.6 0 0 4.3-5.9 4.3-6-0.4 0.2-0.8 0.2-1.2 0.2-0.8 0-1.6-0.3-2.2-0.9z"/>
					<path class="s3" d="m501.5 90.7c0.7 0 1.3-0.6 1.3-1.3v-65.9h-2.5v65.9c0 0.7 0.6 1.3 1.3 1.3z"/>
					<path class="s3" d="m505.8 90.7c0.7 0 1.3-0.6 1.3-1.3v-65.9h-2.5v65.9c0 0.7 0.6 1.3 1.3 1.3z"/>
					<path class="s3" d="m510.2 90.7c0.7 0 1.3-0.6 1.3-1.3v-65.9h-2.5v65.9c0 0.7 0.6 1.3 1.3 1.3z"/>
					<path class="s3" d="m515.8 89.5v-65.9h-2.5v65.9c0 0.7 0.6 1.3 1.3 1.3 0.7 0 1.3-0.6 1.3-1.3z"/>
					<path fill-rule="evenodd" class="s4" d="m500.2 18.7h15.6v3.1h-15.6z"/>
					<path class="s5" d="m515.8 8.4c0-0.1 0-0.2-0.2-0.2h-15.2c-0.1 0-0.2 0-0.2 0.2v8.5h15.6z"/>
					<path class="s1" d="m516 6.4h-16c-0.9 0-1.6 0.7-1.6 1.6v84.1c0 0.7 0.3 1.3 0.7 1.7l7.1 9.8h0.1c0.5 0.6 1 0.8 1.6 0.8 0.6 0 1.3-0.3 1.9-0.8l7.1-9.8c0.5-0.5 0.7-1.1 0.7-1.7v-69.8-14.3c0-0.9-0.7-1.6-1.6-1.6zm-4.6 91.9c-0.9-0.4-2.1-0.6-3.4-0.6-1.3 0-2.5 0.2-3.4 0.6 0 0-4.3-5.9-4.3-6 0.4 0.2 0.8 0.2 1.2 0.2 0.8 0 1.6-0.3 2.2-0.9 0.6 0.6 1.3 0.9 2.2 0.9 0.9 0 1.6-0.3 2.2-0.9 0.6 0.6 1.3 0.9 2.2 0.9 0.9 0 1.6-0.3 2.2-0.9 0.6 0.6 1.3 0.9 2.2 0.9 0.9 0 0.8 0 1.2-0.2l-4.3 6zm-11.2-79.6h15.6v3.1h-15.6zm0-10.3c0-0.1 0-0.2 0.2-0.2h15.2c0.1 0 0.2 0 0.2 0.2v8.5h-15.6zm11.2 15.2v65.9c0 0.7-0.6 1.3-1.3 1.3-0.7 0-1.3-0.6-1.3-1.3v-65.9h2.5zm-4.3 0v65.9c0 0.7-0.6 1.3-1.3 1.3-0.7 0-1.3-0.6-1.3-1.3v-65.9h2.5zm-6.9 0h2.5v65.9c0 0.7-0.6 1.3-1.3 1.3-0.7 0-1.3-0.6-1.3-1.3v-65.9zm13.1 65.9v-65.9h2.5v65.9c0 0.7-0.6 1.3-1.3 1.3-0.7 0-1.3-0.6-1.3-1.3z"/>
				</g>
				<g>
					<path fill-rule="evenodd" class="s1" d="m71 135.6c0 0 0-0.2 0-0.3 0 0 0-25.1 0-25.3 0 0 0.2 0 0.3 0 0 0 4.6 0 4.7 0 0.2 0 0 0.2 0 0.3 0 0 0 25.1 0 25.3 0 0-0.1 0-0.3 0 0 0-4.5 0-4.7 0zm29.9-7.9q0 0.5-0.5 0.5h-9.7c0 0-0.1 0-0.1 0.2 0 0.5 0 1 0 1.2 0 0.6 0.5 1.1 0.8 1.6 0.5 0.4 1 0.7 1.9 0.7 1.1 0 2-0.5 2.5-1.7 0-0.1 0.3-0.3 0.5-0.3l3.8 0.8c0.3 0 0.3 0.4 0.3 0.5-0.5 1.7-1.5 2.9-2.6 3.7-1.2 0.9-2.9 1.4-4.5 1.4-1.7 0-3.9-0.5-5.2-1.5-1.4-1-2.2-2.4-2.5-4.4-0.2-1-0.4-2.5-0.4-4.5 0-2 0-2.2 0.2-3 0.3-1.9 1-3.4 2.5-4.5 1.3-1.2 3-1.7 5.2-1.7 2.2 0 4 0.7 5.5 1.8 1.5 1.2 2.2 2.9 2.3 5.1 0 0.8 0 3.1 0 4.1zm-9.5-6c-0.5 0.3-0.7 1-0.8 1.7 0 0.5 0 0.8 0 1.3 0 0.5 0 0.2 0.1 0.2h4.9c0 0 0.2 0 0.2-0.2 0-0.5 0-1 0-1.3 0-0.7-0.4-1.2-0.9-1.7-0.5-0.5-1-0.7-1.6-0.7-0.7 0-1.2 0.2-1.7 0.7zm29.3-4.7c0.1 0 0.3 0.4 0.1 0.7l-0.6 4.2c0 0.3-0.2 0.3-0.6 0.3q-0.5 0-1 0-0.5 0-1 0c-0.6 0-1.3 0.5-1.8 1-0.5 0.7-0.7 1.4-0.7 2.2 0 0 0 10.2 0 10.4 0 0-0.1 0-0.3 0 0 0-4.5 0-4.7 0 0 0 0-0.2 0-0.4 0 0 0-18.2 0-18.4 0-0.1 0.2 0 0.3 0 0 0 4.6 0 4.7 0 0 0 0 1.7 0 1.9 0.9-1.5 2-2.2 3.7-2.2 1.7 0 1.4 0 1.9 0.5zm22 1.3c1 1.2 1.5 2.7 1.5 4.7 0 0 0 12.4 0 12.6 0 0-0.1 0-0.3 0 0 0-4.5 0-4.7 0 0 0 0-11.7 0-11.9 0-0.9-0.1-1.5-0.6-2-0.4-0.5-1-0.7-1.7-0.7-0.7 0-1.4 0.3-1.7 0.8-0.3 0.5-0.7 1.2-0.7 2.1 0 0 0 11.7 0 11.8 0 0-0.1 0-0.3 0 0 0-4.5 0-4.7 0 0 0 0-0.1 0-0.3 0 0 0-18.2 0-18.4 0-0.2 0.2 0 0.4 0 0 0 4.5 0 4.6 0 0 0 0 1.2 0 1.3 0 0 0 0 0.2 0 0.8-1.1 2.2-1.8 3.9-1.8 1.6 0 3.1 0.5 4.1 1.7zm26.3 9.3q0 0.5-0.5 0.5h-9.7c0 0-0.2 0-0.2 0.2 0 0.5 0 1 0 1.2 0 0.6 0.5 1.1 0.9 1.6 0.5 0.4 1 0.7 1.8 0.7 1.2 0 2-0.5 2.5-1.7 0-0.1 0.3-0.3 0.5-0.3l3.9 0.8c0.3 0 0.3 0.4 0.3 0.5-0.5 1.7-1.5 2.9-2.7 3.7-1.1 0.9-2.8 1.4-4.5 1.4-1.7 0-3.8-0.5-5.2-1.5-1.3-1-2.2-2.4-2.5-4.4-0.2-1-0.3-2.5-0.3-4.5 0-2 0-2.2 0.1-3 0.4-1.9 1-3.4 2.6-4.5 1.3-1.2 3-1.7 5.1-1.7 2.2 0 4.1 0.7 5.6 1.8 1.5 1.2 2.1 2.9 2.3 5.1 0 0.8 0 3.1 0 4.1zm-9.5-6c-0.5 0.3-0.7 1-0.9 1.7 0 0.5 0 0.8 0 1.3 0 0.5 0 0.2 0.2 0.2h4.8c0 0 0.2 0 0.2-0.2 0-0.5 0-1 0-1.3 0-0.7-0.3-1.2-0.8-1.7-0.5-0.5-1-0.7-1.7-0.7-0.7 0-1.2 0.2-1.7 0.7zm32.2-3.3c1 1.1 1.5 2.6 1.5 4.6 0 0 0 12.4 0 12.6 0 0-0.2 0-0.4 0 0 0-4.5 0-4.7 0 0 0 0-11.7 0-11.9 0-0.8-0.1-1.5-0.6-2-0.4-0.5-1-0.7-1.7-0.7-0.7 0-1.3 0.4-1.7 0.9-0.3 0.5-0.6 1.1-0.6 2 0 0 0 11.7 0 11.9 0 0-0.2 0-0.4 0 0 0-4.5 0-4.7 0 0 0 0-0.2 0-0.4 0 0 0-18.2 0-18.4 0-0.1 0.2 0 0.4 0 0 0 4.5 0 4.7 0 0 0 0 1.2 0 1.4 0 0 0 0 0.1 0 0.9-1.2 2.2-1.9 3.9-1.9 1.6 0 3.1 0.5 4.2 1.7zm28.7 17.1l-5.2-18.1c0-0.3 0-0.5 0.4-0.5h4.7c0.3 0 0.5 0 0.5 0.3l2.3 11.1 2.3-11.1c0-0.3 0.2-0.3 0.5-0.3h4.7c0.4 0 0.5 0.2 0.4 0.5l-5.1 18.1c0 0.1-0.1 0.3-0.5 0.3h-4.8c-0.3 0-0.5 0-0.5-0.3zm34-7.7q0 0.5-0.5 0.5h-9.8c0 0-0.1 0-0.1 0.1 0 0.5 0 1 0 1.2 0 0.7 0.5 1.2 0.8 1.7 0.5 0.3 1 0.6 1.9 0.6 1.1 0 2-0.5 2.5-1.6 0-0.2 0.3-0.4 0.5-0.4l3.8 0.9c0.4 0 0.4 0.3 0.4 0.5-0.5 1.7-1.6 2.8-2.7 3.7-1.2 0.8-2.9 1.3-4.5 1.3-1.7 0-3.9-0.5-5.2-1.5-1.4-1-2.2-2.3-2.5-4.4-0.2-1-0.4-2.5-0.4-4.5 0-2 0-2.1 0.2-3 0.3-1.8 1-3.3 2.5-4.5 1.3-1.2 3-1.7 5.2-1.7 2.2 0 4 0.7 5.5 1.9 1.5 1.1 2.2 2.8 2.4 5 0 0.8 0 3.2 0 4.2zm-9.6-6.1c-0.5 0.4-0.7 1-0.8 1.7 0 0.5 0 0.9 0 1.4 0 0.5 0 0.1 0.1 0.1h4.9c0 0 0.2 0 0.2-0.1 0-0.5 0-1 0-1.4 0-0.7-0.4-1.2-0.9-1.7-0.5-0.5-1-0.6-1.6-0.6-0.7 0-1.2 0.1-1.7 0.6zm29.3-4.6c0.1 0 0.3 0.3 0.1 0.6l-0.6 4.2c0 0.3-0.2 0.3-0.5 0.3q-0.5 0-1 0-0.5 0-1 0c-0.7 0-1.4 0.5-1.9 1-0.5 0.7-0.7 1.4-0.7 2.2 0 0 0 10.2 0 10.4 0 0-0.1 0-0.3 0 0 0-4.5 0-4.7 0 0 0 0-0.2 0-0.3 0 0 0-18.3 0-18.4 0-0.2 0.2 0 0.4 0 0 0 4.5 0 4.6 0 0 0 0 1.6 0 1.8 0.9-1.5 2-2.2 3.7-2.2 1.7 0 1.4 0 1.9 0.5zm9.8 17.6q-2-1.5-2-4c0 0 0-0.5 0-0.7 0 0 0.2 0 0.4 0 0 0 4.1 0 4.3 0 0.2 0 0 0.2 0 0.3 0 0.7 0.2 1 0.7 1.4 0.5 0.3 1.1 0.5 1.8 0.5 0.7 0 1.2 0 1.5-0.5 0.4-0.4 0.7-0.7 0.7-1.2 0-0.5-0.2-0.8-0.7-1-0.5-0.2-1.1-0.5-2-0.8-0.3 0-1-0.4-1.8-0.7q-2.3-0.8-3.5-2c-0.9-0.8-1.4-2-1.4-3.7 0-1.7 0.7-3.2 2-4.2 1.4-1 3-1.5 5.2-1.5 2.2 0 4 0.5 5.4 1.7 1.3 1.2 2 2.5 2 4.3 0 1.9 0 0.4-0.5 0.4 0 0-4.2 0-4.4 0 0 0 0-0.2 0-0.4 0-0.6-0.1-1-0.6-1.3-0.4-0.3-1-0.5-1.7-0.5-0.7 0-1.2 0-1.7 0.5-0.3 0.3-0.7 0.7-0.7 1.2 0 0.5 0.2 0.8 0.7 1.2 0.5 0.3 1.2 0.5 2.2 0.8 0.2 0 0.5 0 0.7 0.2 0.1 0 0.3 0 0.5 0.1q2.5 0.8 4 2 1.5 1.3 1.5 3.5c0 1.5-0.7 3.2-2 4.2-1.4 1-3.2 1.5-5.4 1.5q-3.2 0-5.5-1.5zm31.1-13.9c0 0-3 0-3.2 0 0 0-0.1 0-0.1 0.2v8.2c0 0.8 0 1.3 0.5 1.7 0.5 0.3 0.8 0.5 1.3 0.5 0 0 0.8 0 1 0 0 0 0 3.7 0 3.8 0 0.4 0 0.5-0.5 0.5-0.3 0-1 0-1.8 0-2 0-3.4-0.3-4.4-1-1-0.6-1.3-1.8-1.3-3.7v-10.3c0 0 0-0.2-0.2-0.2 0 0-1.8 0-2 0 0 0 0-0.2 0-0.3 0 0 0-3.2 0-3.4 0-0.1 0.2 0 0.3 0h1.7c0 0 0.2 0 0.2-0.1 0 0 0-4.4 0-4.6 0 0 0.1 0 0.3 0 0 0 4.2 0 4.4 0 0.1 0 0 0.2 0 0.4v4.2c0 0 0 0.1 0.1 0.1 0 0 3 0 3.2 0 0 0 0 0.2 0 0.4 0 0 0 3.1 0 3.3zm24.1 7q0 0.5-0.5 0.5h-9.7c0 0-0.2 0-0.2 0.2 0 0.5 0 1 0 1.2 0 0.6 0.5 1.1 0.9 1.6 0.5 0.4 1 0.7 1.8 0.7 1.2 0 2-0.5 2.5-1.7 0-0.1 0.4-0.3 0.5-0.3l3.9 0.8c0.3 0 0.3 0.4 0.3 0.5-0.5 1.7-1.5 2.9-2.7 3.7-1.1 0.9-2.8 1.4-4.5 1.4-1.7 0-3.8-0.5-5.2-1.5-1.3-1-2.2-2.4-2.5-4.4-0.2-1-0.3-2.5-0.3-4.5 0-2 0-2.2 0.1-3 0.4-1.9 1-3.4 2.6-4.5 1.3-1.2 3-1.7 5.1-1.7 2.2 0 4.1 0.7 5.6 1.8 1.5 1.2 2.1 2.9 2.3 5 0 0.9 0 3.2 0 4.2zm-9.4-6c-0.5 0.3-0.6 1-0.8 1.7 0 0.5 0 0.8 0 1.3 0 0.5 0 0.2 0.2 0.2h4.8c0 0 0.2 0 0.2-0.2 0-0.5 0-1 0-1.3 0-0.7-0.4-1.2-0.9-1.7-0.5-0.5-1-0.7-1.6-0.7-0.7 0-1.2 0.2-1.7 0.7zm32-3.3c1 1.1 1.5 2.6 1.5 4.6 0 0 0 12.4 0 12.6 0 0-0.2 0-0.4 0 0 0-4.5 0-4.7 0 0 0 0-11.7 0-11.9 0-0.8-0.1-1.5-0.6-2-0.4-0.5-1-0.7-1.7-0.7-0.7 0-1.3 0.4-1.7 0.9-0.3 0.5-0.6 1.1-0.6 2 0 0 0 11.7 0 11.9 0 0-0.2 0-0.4 0 0 0-4.5 0-4.7 0 0 0 0-0.2 0-0.4 0 0 0-25.1 0-25.2 0 0 0.2 0 0.4 0 0 0 4.5 0 4.7 0 0.1 0 0 0.1 0 0.3v7.9c0 0 0 0 0.1 0 0.9-1.2 2.2-1.9 3.9-1.9 1.6 0 3.2 0.5 4.2 1.7zm26.2 9.4q0 0.5-0.5 0.5h-9.7c0 0-0.2 0-0.2 0.1 0 0.5 0 1 0 1.2 0 0.7 0.5 1.2 0.9 1.7 0.5 0.3 1 0.6 1.8 0.6 1.2 0 2-0.5 2.5-1.6 0-0.2 0.4-0.4 0.5-0.4l3.9 0.9c0.3 0 0.3 0.3 0.3 0.5-0.5 1.7-1.5 2.8-2.7 3.7-1.1 0.8-2.8 1.3-4.5 1.3-1.6 0-3.8-0.5-5.2-1.5-1.3-1-2.1-2.4-2.5-4.4-0.1-1-0.3-2.5-0.3-4.5 0-2 0-2.2 0.2-3 0.3-1.8 1-3.3 2.5-4.5 1.3-1.2 3-1.7 5.2-1.7 2.1 0 4 0.7 5.5 1.9 1.5 1.1 2.2 2.8 2.3 5 0 0.8 0 3.2 0 4.2zm-9.3-6.1c-0.6 0.4-0.7 1-0.9 1.7 0 0.5 0 0.9 0 1.4 0 0.5 0 0.1 0.2 0.1h4.8c0 0 0.2 0 0.2-0.1 0-0.5 0-1.1 0-1.4 0-0.7-0.3-1.2-0.8-1.7-0.5-0.5-1-0.6-1.7-0.6-0.7 0-1.2 0.1-1.7 0.6zm32-3.3c1 1.2 1.5 2.7 1.5 4.7 0 0 0 12.4 0 12.5 0 0-0.2 0-0.4 0 0 0-4.5 0-4.6 0 0 0 0-11.7 0-11.9 0-0.8-0.2-1.5-0.7-2-0.3-0.5-1-0.6-1.7-0.6-0.7 0-1.3 0.3-1.7 0.8-0.3 0.5-0.6 1.2-0.6 2 0 0 0 11.7 0 11.9 0 0-0.2 0-0.4 0 0 0-4.5 0-4.6 0 0 0 0-0.2 0-0.3 0 0 0-18.3 0-18.4 0-0.2 0.1 0 0.3 0 0 0 4.5 0 4.7 0 0 0 0 1.1 0 1.3 0 0 0 0 0.1 0 0.9-1.2 2.2-1.8 3.9-1.8 1.7 0 3.2 0.5 4.2 1.6zm40 7.9c0 1.7 0 3-0.4 4-0.8 3.9-2.7 5.9-5.7 5.9-3 0-3-0.5-3.8-1.5 0 0 0 1 0 1.1 0 0-0.2 0-0.4 0 0 0-4.5 0-4.6 0 0 0 0-0.1 0-0.3 0 0 0-25.1 0-25.3 0 0 0.1 0 0.3 0 0 0 4.5 0 4.7 0 0.2 0 0 0.2 0 0.4v7.5c0.5-0.5 1-1 1.7-1.2 0.6-0.1 1.3-0.3 2.1-0.3 1.7 0 2.9 0.5 3.9 1.5 1 1 1.7 2.3 2 4.2 0.2 1 0.3 2.3 0.3 3.8zm-5.2 0c0-1.5 0-2.5-0.3-3.3-0.3-1.4-1.2-2-2.2-2-1 0-1.8 0.6-2.1 2-0.2 0.8-0.4 2-0.4 3.2 0 1.1 0 2.5 0.4 3.1 0.3 1.5 1 2.2 2.1 2.2 1.2 0 2-0.7 2.4-2.2 0.1-0.8 0.3-1.8 0.3-3.1zm29.9 0v1.5q0 0.5-0.5 0.5h-9.7c0 0-0.1 0-0.1 0.1 0 0.5 0 1 0 1.2 0 0.7 0.5 1.2 0.8 1.7 0.5 0.3 1 0.6 1.9 0.6 1.1 0 2-0.5 2.5-1.6 0-0.2 0.3-0.4 0.5-0.4l3.8 0.9c0.3 0 0.3 0.3 0.3 0.5-0.5 1.6-1.5 2.8-2.6 3.7-1.2 0.8-2.9 1.3-4.5 1.3-1.7 0-3.9-0.5-5.2-1.5-1.4-1-2.2-2.4-2.5-4.4-0.2-1-0.4-2.5-0.4-4.5 0-2 0-2.2 0.2-3 0.3-1.8 1-3.3 2.5-4.5 1.3-1.2 3-1.7 5.2-1.7 2.2 0 4 0.7 5.5 1.9 1.5 1.1 2.2 2.8 2.3 5 0 0.8 0 1.7 0 2.7zm-9.5-4.6c-0.5 0.4-0.7 1-0.8 1.7 0 0.5 0 0.8 0 1.4 0 0.5 0 0.1 0.1 0.1h4.9c0 0 0.2 0 0.2-0.1 0-0.6 0-1.1 0-1.4 0-0.7-0.4-1.2-0.9-1.7-0.5-0.5-1-0.6-1.6-0.6-0.7 0-1.2 0.1-1.7 0.6zm19.9 12.9q-2-1.5-2-4c0 0 0-0.5 0-0.7 0 0 0.1 0 0.3 0 0 0 4.2 0 4.4 0 0.1 0 0 0.2 0 0.4 0 0.6 0.1 1 0.6 1.3 0.5 0.3 1.2 0.5 1.9 0.5 0.6 0 1.1 0 1.5-0.5 0.3-0.3 0.6-0.7 0.6-1.2 0-0.5-0.1-0.8-0.6-1-0.5-0.1-1.2-0.5-2-0.8-0.4 0-1-0.3-1.9-0.7q-2.2-0.7-3.5-2c-0.8-0.8-1.3-2-1.3-3.7 0-1.6 0.6-3.1 2-4.1 1.3-1 3-1.5 5.2-1.5 2.1 0 4 0.5 5.3 1.6 1.4 1.2 2 2.5 2 4.4 0 1.8 0 0.3-0.5 0.3 0 0-4.1 0-4.3 0 0 0 0-0.2 0-0.3 0-0.7-0.2-1-0.7-1.4-0.3-0.3-1-0.5-1.7-0.5-0.6 0-1.1 0-1.6 0.5-0.4 0.4-0.7 0.7-0.7 1.2 0 0.5 0.2 0.8 0.7 1.2 0.5 0.3 1.1 0.5 2.1 0.8 0.2 0 0.5 0 0.7 0.2 0.2 0 0.3 0 0.5 0.2q2.5 0.7 4 2 1.5 1.2 1.5 3.5c0 1.5-0.6 3.2-2 4.2-1.3 1-3.2 1.5-5.3 1.5q-3.3 0-5.5-1.5zm31.1-13.9c0 0-0.2 0-0.4 0h-2.8c0 0-0.2 0-0.2 0.1v8.2c0 0.9 0 1.4 0.5 1.7 0.5 0.3 0.9 0.5 1.4 0.5 0 0 0.8 0 1 0 0 0 0 0.2 0 0.3v3.6c0 0.3 0 0.5-0.5 0.5-0.4 0-1 0-1.9 0-2 0-3.3-0.4-4.3-1-1-0.7-1.4-1.9-1.4-3.7v-10.4c0 0 0-0.2-0.1-0.2 0 0-1.9 0-2 0 0 0 0-0.1 0-0.3 0 0 0-3.2 0-3.3 0-0.2 0.1 0 0.3 0h1.7c0 0 0.1 0 0.1-0.2 0 0 0-4.4 0-4.5 0 0 0.2 0 0.4 0 0 0 4.2 0 4.3 0 0.2 0 0 0.1 0 0.3v4.2c0 0 0 0.2 0.2 0.2 0 0 3 0 3.2 0 0 0 0 0.1 0 0.3 0 0 0 3.2 0 3.3zm24.1 5.6v1.5q0 0.5-0.5 0.5h-9.7c0 0-0.2 0-0.2 0.1 0 0.5 0 1 0 1.2 0 0.7 0.5 1.2 0.8 1.7 0.5 0.3 1 0.6 1.9 0.6 1.1 0 2-0.5 2.5-1.6 0-0.2 0.3-0.4 0.5-0.4l3.8 0.9c0.4 0 0.4 0.3 0.4 0.5-0.5 1.6-1.5 2.8-2.7 3.7-1.2 0.8-2.9 1.3-4.5 1.3-1.7 0-3.9-0.5-5.2-1.5-1.4-1-2.2-2.4-2.5-4.4-0.2-1-0.4-2.5-0.4-4.5 0-2 0-2.2 0.2-3 0.3-1.8 1-3.3 2.5-4.5 1.3-1.2 3-1.7 5.2-1.7 2.2 0 4 0.7 5.5 1.9 1.5 1.1 2.2 2.8 2.4 5 0 0.8 0 1.7 0 2.7zm-9.6-4.6c-0.5 0.4-0.6 1-0.8 1.7 0 0.5 0 0.8 0 1.3 0 0.6 0 0.2 0.2 0.2h4.8c0 0 0.2 0 0.2-0.2 0-0.5 0-1 0-1.3 0-0.7-0.4-1.2-0.9-1.7-0.5-0.5-1-0.6-1.6-0.6-0.7 0-1.2 0.1-1.7 0.6zm32.1-3.3c1 1.2 1.5 2.7 1.5 4.7 0 0 0 12.4 0 12.5 0 0-0.2 0-0.3 0 0 0-4.5 0-4.7 0 0 0 0-0.1 0-0.3v-11.6c0-0.8-0.2-1.5-0.7-2-0.3-0.5-1-0.6-1.6-0.6-0.7 0-1.4 0.3-1.7 0.8-0.4 0.5-0.7 1.2-0.7 2 0 0 0 11.7 0 11.9 0 0-0.2 0-0.3 0 0 0-4.5 0-4.7 0 0 0 0-0.2 0-0.3 0 0 0-25.1 0-25.3 0 0 0.2 0 0.3 0 0 0 4.5 0 4.7 0 0.2 0 0 0.2 0 0.3v7.9c0 0 0 0 0.2 0 0.8-1.2 2.2-1.8 3.8-1.8 1.7 0 3.2 0.5 4.2 1.6zm26.3 7.9v1.5q0 0.5-0.5 0.5h-9.7c0 0-0.2 0-0.2 0.2 0 0.5 0 1 0 1.1 0 0.7 0.5 1.2 0.8 1.7 0.5 0.3 1 0.7 1.9 0.7 1.2 0 2-0.5 2.5-1.7 0-0.2 0.3-0.3 0.5-0.3l3.8 0.8c0.4 0 0.4 0.3 0.4 0.5-0.5 1.7-1.5 2.9-2.7 3.7-1.2 0.8-2.8 1.3-4.5 1.3-1.7 0-3.9-0.5-5.2-1.5-1.3-1-2.2-2.3-2.5-4.3-0.2-1-0.3-2.5-0.3-4.5 0-2.1 0-2.2 0.1-3.1 0.4-1.8 1-3.3 2.5-4.5 1.4-1.1 3-1.6 5.2-1.6 2.2 0 4 0.6 5.5 1.8 1.5 1.2 2.2 2.8 2.4 5 0 0.8 0 1.7 0 2.7zm-9.6-4.5c-0.5 0.3-0.6 1-0.8 1.6 0 0.5 0 0.9 0 1.4 0 0.5 0 0.1 0.2 0.1h4.8c0 0 0.2 0 0.2-0.1 0-0.5 0-1 0-1.4 0-0.6-0.3-1.1-0.8-1.6-0.5-0.5-1.1-0.7-1.7-0.7-0.7 0-1.2 0.2-1.7 0.7zm32.1-3.4c1 1.2 1.5 2.7 1.5 4.7 0 0 0 12.4 0 12.6 0 0-0.1 0-0.3 0 0 0-4.5 0-4.7 0 0 0 0-0.2 0-0.4v-11.5c0-0.9-0.2-1.5-0.7-2-0.3-0.5-1-0.7-1.6-0.7-0.7 0-1.4 0.3-1.7 0.8-0.3 0.5-0.7 1.2-0.7 2 0 0 0 11.8 0 11.9 0 0-0.1 0-0.3 0 0 0-4.5 0-4.7 0 0 0 0-0.1 0-0.3 0 0 0-18.2 0-18.4 0-0.2 0.2 0 0.3 0 0 0 4.6 0 4.7 0 0 0 0 0.2 0 0.3v1c0 0 0 0 0.2 0 0.8-1.1 2.2-1.8 3.8-1.8 1.7 0 3.2 0.5 4.2 1.7z"/>
				</g>
			</g>
		</g>
	</g>
</svg>