<svg width="249" height="215" viewBox="0 0 249 215" fill="none" xmlns="http://www.w3.org/2000/svg">
<path d="M135.123 140.275L133.067 142.142L135.557 144.884L137.614 143.016L135.123 140.275Z" fill="url(#paint0_linear_16_261)"/>
<path d="M127.102 147.754L125.047 149.622L127.538 152.363L129.593 150.495L127.102 147.754Z" fill="url(#paint1_linear_16_261)"/>
<path fill-rule="evenodd" clip-rule="evenodd" d="M119.885 146.727L121.428 145.492L131.304 156.294L129.916 157.529L119.885 146.727Z" fill="url(#paint2_linear_16_261)"/>
<path fill-rule="evenodd" clip-rule="evenodd" d="M125.133 143.024C125.133 143.024 126.522 142.869 127.602 141.789C128.683 140.863 129.3 139.783 128.991 139.474C128.683 139.166 127.602 139.629 126.522 140.709C125.442 141.635 124.825 142.715 125.133 143.024Z" fill="#959696" stroke="#1B1B1B" stroke-width="0.462941" stroke-miterlimit="10"/>
<path fill-rule="evenodd" clip-rule="evenodd" d="M192.413 211.23L189.327 206.292L186.395 208.915L191.025 212.464C194.574 215.242 194.882 215.088 192.413 211.23Z" fill="#231F20"/>
<path fill-rule="evenodd" clip-rule="evenodd" d="M192.413 211.539C192.413 211.539 189.482 206.909 189.019 206.446L186.55 208.761C186.55 208.761 190.87 212.465 191.179 212.619C194.111 215.397 194.574 214.934 192.413 211.539Z" fill="#3A3738"/>
<path fill-rule="evenodd" clip-rule="evenodd" d="M192.568 211.693C192.568 211.693 189.791 207.372 189.019 206.446L187.013 208.298C187.013 208.298 191.179 212.156 191.642 212.619C194.111 215.088 194.574 214.625 192.723 211.693H192.568Z" fill="#514E4F"/>
<path fill-rule="evenodd" clip-rule="evenodd" d="M192.568 212.002C192.568 212.002 189.945 207.99 188.865 206.446L187.167 207.99C187.939 209.07 191.025 211.847 191.797 212.619C193.803 214.625 194.266 214.471 192.568 212.002Z" fill="#686667"/>
<path fill-rule="evenodd" clip-rule="evenodd" d="M192.723 212.156C192.106 211.23 190.254 208.452 188.865 206.446L187.631 207.681C188.711 209.07 191.334 211.693 192.26 212.619C193.803 214.316 194.266 214.162 192.878 212.156H192.723Z" fill="#7E7E7E"/>
<path fill-rule="evenodd" clip-rule="evenodd" d="M192.878 212.465C192.106 211.385 190.563 209.224 188.711 206.601L187.94 207.372C189.329 209.07 191.335 211.539 192.415 212.773C193.495 214.008 193.958 214.008 192.878 212.465Z" fill="#959595"/>
<path fill-rule="evenodd" clip-rule="evenodd" d="M192.878 212.774C191.952 211.385 190.718 209.842 188.557 206.755L188.094 207.218C189.792 209.224 191.335 211.385 192.569 212.928C193.341 213.854 193.495 213.854 192.724 212.928L192.878 212.774Z" fill="#ACADAD"/>
<path fill-rule="evenodd" clip-rule="evenodd" d="M177.599 200.273C177.599 200.273 178.987 200.119 180.068 199.039C181.148 198.113 181.765 197.033 181.456 196.724C181.148 196.416 180.068 196.879 178.987 197.959C177.907 198.885 177.29 199.965 177.599 200.273Z" fill="#959696" stroke="#1B1B1B" stroke-width="0.462941" stroke-miterlimit="10"/>
<path fill-rule="evenodd" clip-rule="evenodd" d="M177.598 200.274C177.598 200.274 178.987 200.12 180.067 199.039C181.148 198.113 181.765 197.033 181.456 196.725L189.635 205.52C189.635 205.52 188.863 207.527 188.246 207.99C187.783 208.452 186.24 209.533 185.623 209.07L177.598 200.12V200.274Z" fill="white"/>
<path fill-rule="evenodd" clip-rule="evenodd" d="M177.598 200.274C177.598 200.274 178.987 200.12 180.067 199.039C181.148 198.113 181.765 197.033 181.456 196.725L189.635 205.52C189.635 205.52 188.709 207.372 188.246 207.835C187.783 208.298 186.24 209.533 185.777 209.07L177.753 200.12L177.598 200.274Z" fill="url(#paint3_linear_16_261)"/>
<path fill-rule="evenodd" clip-rule="evenodd" d="M162.632 182.219C162.632 182.219 163.404 182.219 164.021 181.602C164.638 181.139 164.947 180.522 164.792 180.367C164.638 180.213 164.021 180.367 163.404 180.985C162.786 181.448 162.478 182.065 162.632 182.219Z" fill="#959696" stroke="#1B1B1B" stroke-width="0.462941" stroke-miterlimit="10"/>
<path fill-rule="evenodd" clip-rule="evenodd" d="M169.268 192.712C169.268 192.712 171.12 192.404 172.509 191.015C173.898 189.78 174.824 188.237 174.361 187.928C173.898 187.466 172.509 188.237 170.966 189.626C169.577 191.015 168.651 192.404 169.114 192.712H169.268Z" fill="#A5A6A6"/>
<path fill-rule="evenodd" clip-rule="evenodd" d="M169.269 192.712C169.269 192.712 171.12 192.404 172.509 191.015C173.898 189.78 174.824 188.237 174.361 187.929L182.231 196.57C182.231 196.57 180.996 199.039 180.379 199.656C179.608 200.274 177.756 201.971 177.139 201.2L169.269 192.558V192.712Z" fill="#A5A6A6"/>
<path fill-rule="evenodd" clip-rule="evenodd" d="M169.268 192.712C169.268 192.712 171.12 192.404 172.663 191.015C174.052 189.626 174.978 188.237 174.515 187.774L182.694 196.724C182.694 196.724 181.459 199.348 180.688 199.965C180.07 200.582 178.064 202.28 177.293 201.662L169.114 192.712H169.268Z" fill="url(#paint4_linear_16_261)"/>
<path fill-rule="evenodd" clip-rule="evenodd" d="M182.694 196.725C182.694 196.725 181.46 199.348 180.842 199.965C180.225 200.582 178.219 202.126 177.448 201.508" fill="white"/>
<path fill-rule="evenodd" clip-rule="evenodd" d="M169.268 192.712C169.268 192.712 171.12 192.404 172.663 191.015C174.052 189.626 174.978 188.237 174.515 187.774L182.694 196.724C182.694 196.724 181.459 199.348 180.688 199.965C180.07 200.582 178.064 202.28 177.293 201.662L169.114 192.712H169.268Z" fill="url(#paint5_linear_16_261)"/>
<path fill-rule="evenodd" clip-rule="evenodd" d="M172.201 191.323L180.38 200.273C180.38 200.273 180.534 200.273 180.534 200.119L172.355 191.323C172.355 191.323 172.201 191.323 172.201 191.477V191.323ZM171.738 191.786L179.917 200.736C179.917 200.736 179.917 200.736 180.071 200.582L171.892 191.632C171.892 191.632 171.738 191.632 171.738 191.786ZM171.121 192.095L179.3 201.045C179.3 201.045 179.3 201.045 179.454 201.045L171.275 192.095C171.275 192.095 171.275 192.095 171.121 192.095ZM170.504 192.558L178.682 201.508C178.682 201.508 178.682 201.508 178.837 201.508L170.658 192.558C170.658 192.558 170.658 192.558 170.504 192.558ZM169.886 192.712L178.065 201.662C178.065 201.662 178.219 201.662 178.374 201.662L170.195 192.712C170.195 192.712 170.041 192.712 169.886 192.712ZM172.973 190.706L181.151 199.656C181.151 199.656 180.997 199.656 180.997 199.81L172.818 191.014C172.818 191.014 172.818 191.014 172.973 190.86V190.706ZM173.436 190.088L181.614 199.039C181.614 199.039 181.614 199.039 181.46 199.193L173.281 190.243C173.281 190.243 173.281 190.243 173.436 190.088ZM173.899 189.626L182.077 198.576C182.077 198.576 182.077 198.576 181.923 198.73L173.744 189.78C173.744 189.78 173.744 189.78 173.899 189.626ZM174.207 189.008L182.386 197.958C182.386 197.958 182.386 197.958 182.386 198.113L174.207 189.163C174.207 189.163 174.207 189.163 174.207 189.008ZM174.67 188.391L182.849 197.341C182.849 197.341 182.849 197.496 182.849 197.65L174.67 188.7C174.67 188.7 174.67 188.545 174.67 188.391Z" fill="url(#paint6_linear_16_261)"/>
<path fill-rule="evenodd" clip-rule="evenodd" d="M169.268 192.712C169.268 192.712 171.12 192.404 172.663 191.169C174.052 189.78 174.978 188.391 174.515 187.928C174.052 187.466 172.663 188.237 171.12 189.626C169.731 191.015 168.805 192.404 169.268 192.867V192.712Z" fill="white"/>
<path fill-rule="evenodd" clip-rule="evenodd" d="M169.268 192.712C169.268 192.712 171.119 192.403 172.662 191.015C174.051 189.626 174.977 188.237 174.514 187.774C174.206 187.311 172.662 188.083 171.119 189.472C169.73 190.86 168.805 192.249 169.113 192.712H169.268Z" fill="url(#paint7_linear_16_261)"/>
<path fill-rule="evenodd" clip-rule="evenodd" d="M162.63 182.219C162.63 182.219 163.402 182.219 164.019 181.602C164.636 181.139 164.945 180.522 164.791 180.367L172.815 189.163C172.815 189.163 172.352 190.243 172.043 190.398C171.735 190.706 170.963 191.324 170.809 191.015L162.785 182.219H162.63Z" fill="url(#paint8_linear_16_261)"/>
<path fill-rule="evenodd" clip-rule="evenodd" d="M165.252 184.997L165.561 185.46C165.561 185.46 168.03 183.917 167.567 183.608L167.258 183.299C167.258 183.299 165.715 185.305 165.098 185.151L165.252 184.997Z" fill="url(#paint9_linear_16_261)"/>
<path fill-rule="evenodd" clip-rule="evenodd" d="M166.025 185.923L166.333 186.386C166.333 186.386 168.802 184.842 168.339 184.534L168.031 184.225C168.031 184.225 166.488 186.231 165.87 186.077L166.025 185.923Z" fill="url(#paint10_linear_16_261)"/>
<path fill-rule="evenodd" clip-rule="evenodd" d="M166.797 186.848L167.106 187.311C167.106 187.311 169.575 185.768 169.112 185.46L168.803 184.997C168.803 184.997 167.26 187.003 166.797 186.848Z" fill="url(#paint11_linear_16_261)"/>
<path fill-rule="evenodd" clip-rule="evenodd" d="M167.566 187.621L167.874 187.929C167.874 187.929 170.343 186.386 170.035 186.077L169.726 185.614C169.726 185.614 168.183 187.621 167.72 187.466L167.566 187.621Z" fill="url(#paint12_linear_16_261)"/>
<path fill-rule="evenodd" clip-rule="evenodd" d="M168.493 188.546L168.801 188.855C168.801 188.855 171.27 187.312 170.962 187.003L170.653 186.54C170.653 186.54 169.11 188.546 168.493 188.392V188.546Z" fill="url(#paint13_linear_16_261)"/>
<path fill-rule="evenodd" clip-rule="evenodd" d="M169.265 189.472L169.573 189.935C169.573 189.935 172.043 188.391 171.734 188.083L171.425 187.774C171.425 187.774 169.882 189.78 169.265 189.626V189.472Z" fill="url(#paint14_linear_16_261)"/>
<path fill-rule="evenodd" clip-rule="evenodd" d="M170.037 190.397L170.346 190.86C170.346 190.86 172.815 189.317 172.506 189.009L172.198 188.7C172.198 188.7 170.654 190.706 170.037 190.552V190.397Z" fill="url(#paint15_linear_16_261)"/>
<path fill-rule="evenodd" clip-rule="evenodd" d="M125.133 143.023C125.133 143.023 126.522 142.869 127.602 141.789C128.682 140.863 129.3 139.783 128.991 139.474L167.261 181.293C167.261 181.293 166.335 183.145 165.872 183.608C165.409 184.071 163.866 185.305 163.403 184.842L125.133 143.023Z" fill="url(#paint16_linear_16_261)"/>
<path d="M36.0944 34.6952L28.9959 41.1764L133.775 155.677C136.861 154.288 139.176 151.974 140.873 149.196L36.0944 34.6952Z" fill="url(#paint17_linear_16_261)"/>
<path d="M35.6319 35.1586L29.4594 40.8682L134.238 155.369C137.016 154.289 139.022 152.283 140.411 149.659L35.6319 35.1586Z" fill="url(#paint18_linear_16_261)"/>
<path fill-rule="evenodd" clip-rule="evenodd" d="M120.194 147.036L121.737 145.801L122.046 146.264L120.657 147.499L120.194 147.036Z" fill="url(#paint19_linear_16_261)"/>
<path fill-rule="evenodd" clip-rule="evenodd" d="M121.275 148.271L122.819 147.036L123.281 147.499L121.738 148.733L121.275 148.271Z" fill="url(#paint20_linear_16_261)"/>
<path fill-rule="evenodd" clip-rule="evenodd" d="M122.507 149.505L123.896 148.116L124.359 148.579L122.816 149.968L122.507 149.505Z" fill="url(#paint21_linear_16_261)"/>
<path fill-rule="evenodd" clip-rule="evenodd" d="M123.589 150.739L124.977 149.35L125.44 149.813L124.052 151.202L123.589 150.739Z" fill="url(#paint22_linear_16_261)"/>
<path fill-rule="evenodd" clip-rule="evenodd" d="M124.67 151.974L126.213 150.585L126.522 151.048L125.133 152.437L124.67 151.974Z" fill="url(#paint23_linear_16_261)"/>
<path fill-rule="evenodd" clip-rule="evenodd" d="M125.751 153.209L127.294 151.82L127.757 152.283L126.214 153.671L125.751 153.209Z" fill="url(#paint24_linear_16_261)"/>
<path fill-rule="evenodd" clip-rule="evenodd" d="M126.983 154.442L128.372 153.054L128.835 153.516L127.292 154.905L126.983 154.442Z" fill="url(#paint25_linear_16_261)"/>
<path fill-rule="evenodd" clip-rule="evenodd" d="M128.064 155.677L129.453 154.288L129.916 154.751L128.527 156.14L128.064 155.677Z" fill="url(#paint26_linear_16_261)"/>
<path fill-rule="evenodd" clip-rule="evenodd" d="M129.146 156.912L130.534 155.523L130.997 155.986L129.608 157.375L129.146 156.912Z" fill="url(#paint27_linear_16_261)"/>
<path fill-rule="evenodd" clip-rule="evenodd" d="M120.966 133.61L120.194 134.227L137.477 153.053C137.477 153.053 137.94 152.59 138.249 152.436L120.966 133.61Z" fill="white"/>
<path fill-rule="evenodd" clip-rule="evenodd" d="M120.966 133.764L120.194 134.382L137.477 153.208C137.477 153.208 137.94 152.745 138.249 152.591L120.966 133.764Z" fill="black"/>
<path fill-rule="evenodd" clip-rule="evenodd" d="M103.991 115.247C102.602 115.864 101.985 117.407 102.602 118.796C103.219 120.185 104.762 120.802 106.151 120.185C107.54 119.567 108.157 118.024 107.54 116.635C106.923 115.247 105.38 114.629 103.991 115.247Z" fill="url(#paint28_linear_16_261)"/>
<path fill-rule="evenodd" clip-rule="evenodd" d="M104.146 115.556C102.912 116.019 102.295 117.562 102.758 118.796C103.221 120.031 104.764 120.648 105.998 120.185C107.233 119.722 107.85 118.179 107.387 116.944C106.924 115.71 105.381 115.093 104.146 115.556Z" fill="url(#paint29_linear_16_261)"/>
<path fill-rule="evenodd" clip-rule="evenodd" d="M104.148 115.556C102.914 116.018 102.297 117.407 102.914 118.642C103.377 119.876 104.766 120.339 106 119.876C107.235 119.413 107.852 118.025 107.235 116.79C106.772 115.556 105.383 114.938 104.148 115.556Z" fill="url(#paint30_linear_16_261)"/>
<path fill-rule="evenodd" clip-rule="evenodd" d="M107.079 116.481L102.758 118.179C102.758 118.179 102.758 118.487 102.758 118.642C102.758 118.642 102.758 118.95 102.913 118.95L107.234 117.253C107.234 117.253 107.234 116.944 107.234 116.79C107.234 116.79 107.234 116.481 107.079 116.481Z" fill="url(#paint31_linear_16_261)"/>
<path fill-rule="evenodd" clip-rule="evenodd" d="M112.018 117.562L110.937 130.833L111.4 131.141L112.326 118.025L112.018 117.562Z" fill="black"/>
<path style="mix-blend-mode:multiply" d="M36.0944 34.6952L28.9959 41.1764L133.775 155.677C136.861 154.288 139.176 151.974 140.873 149.196L36.0944 34.6952Z" fill="url(#paint32_linear_16_261)"/>
<path d="M248.896 153.363C241.644 149.66 235.78 146.419 228.527 142.253C224.669 139.938 226.675 141.173 222.817 138.858C214.793 134.074 213.713 132.994 216.799 134.383C214.022 132.377 215.565 132.685 223.589 137.469C227.447 139.784 225.286 138.549 229.299 140.864C236.397 145.031 242.107 148.734 248.896 153.363Z" fill="url(#paint33_linear_16_261)"/>
<path d="M221.272 129.599C223.278 130.834 224.512 131.605 225.901 132.377C227.136 133.148 227.29 134.074 227.598 135.772C227.907 137.315 227.29 142.253 227.29 142.253C227.29 142.253 221.735 139.012 217.414 136.389C213.247 133.92 217.722 128.056 221.117 129.599H221.272Z" fill="url(#paint34_linear_16_261)"/>
<path style="mix-blend-mode:multiply" d="M221.272 129.599C223.278 130.834 224.512 131.605 225.901 132.377C227.136 133.148 227.29 134.074 227.598 135.772C227.907 137.315 227.29 142.253 227.29 142.253C227.29 142.253 221.735 139.012 217.414 136.389C213.247 133.92 217.722 128.056 221.117 129.599H221.272Z" fill="url(#paint35_linear_16_261)"/>
<path d="M39.183 32.0724L44.1211 23.7395L223.588 129.753C222.816 132.994 221.119 135.771 218.65 138.086L39.183 32.0724Z" fill="url(#paint36_linear_16_261)"/>
<path d="M39.4919 31.4556L43.8127 24.2029L223.28 130.216C222.662 133.148 221.273 135.463 218.959 137.469L39.4919 31.4556Z" fill="url(#paint37_linear_16_261)"/>
<path style="mix-blend-mode:multiply" d="M39.183 32.0724L44.1211 23.7395L223.588 129.753C222.816 132.994 221.119 135.771 218.65 138.086L39.183 32.0724Z" fill="url(#paint38_linear_16_261)"/>
<path style="mix-blend-mode:multiply" d="M39.183 32.0724L44.1211 23.7395L223.588 129.753C222.816 132.994 221.119 135.771 218.65 138.086L39.183 32.0724Z" fill="url(#paint39_linear_16_261)"/>
<path fill-rule="evenodd" clip-rule="evenodd" d="M206.614 124.352L206.768 125.278L205.842 125.741L206.305 126.666L205.534 127.284L206.151 128.055L205.534 128.827L206.305 129.444L205.842 130.37L206.768 130.833L206.46 131.759L207.385 132.067V132.993H208.311L208.466 134.073L209.391 133.919L209.854 134.845L210.78 134.536L211.243 135.308L212.169 134.845L212.786 135.462L213.558 134.845L214.329 135.308L214.947 134.536L215.873 134.845L216.181 133.919L217.107 134.073L217.416 133.148H218.342V132.067L219.268 131.913L218.959 130.987L219.885 130.524L219.422 129.598L220.193 128.981L219.576 128.21L220.193 127.438L219.576 126.821L219.885 125.895L219.113 125.432L219.268 124.506L218.342 124.197V123.272L217.416 123.117L217.261 122.191L216.336 122.346L215.873 121.42L215.101 121.728L214.484 120.957L213.712 121.42L212.941 120.802L212.323 121.42L211.398 120.802L210.935 121.728L210.009 121.265L209.546 122.191L208.62 122.037L208.466 122.963L207.385 123.117L207.54 124.043L206.614 124.352Z" fill="url(#paint40_linear_16_261)"/>
<path fill-rule="evenodd" clip-rule="evenodd" d="M207.694 125.124C205.997 127.901 206.923 131.605 209.855 133.302C212.632 135 216.336 134.074 218.033 131.142C219.731 128.364 218.805 124.661 215.873 122.963C213.095 121.266 209.392 122.192 207.694 125.124Z" fill="url(#paint41_linear_16_261)"/>
<path fill-rule="evenodd" clip-rule="evenodd" d="M212.322 127.747C212.322 127.747 212.322 128.518 212.631 128.673C212.94 128.827 213.403 128.673 213.557 128.364C213.711 128.055 213.557 127.592 213.248 127.438C212.94 127.284 212.477 127.438 212.322 127.747Z" fill="black"/>
<path fill-rule="evenodd" clip-rule="evenodd" d="M68.501 68.1815C70.5071 66.7926 71.7416 65.4038 73.439 63.5521C74.9822 61.7003 76.0624 60.1572 77.1426 57.9968C78.0684 55.9907 75.7537 53.0587 74.6735 51.3613C73.902 50.2811 73.2847 49.2009 72.5131 48.1207C71.433 46.4232 70.1984 44.7258 68.8096 43.0283C65.2604 38.3989 61.0939 34.2325 56.3102 30.9919C50.6006 26.9797 42.8849 21.4244 37.021 17.5666C34.089 19.8813 31.0028 22.8132 28.6881 25.7452C26.219 28.6772 23.9043 32.0721 22.0526 35.3127V35.467C26.8363 40.5593 33.6261 47.1948 38.5641 52.1329C42.7306 56.2993 47.5143 59.6942 52.6067 62.4719C54.4584 63.3978 56.3102 64.3236 58.162 65.2495C59.3965 65.7124 60.4767 66.1754 61.7112 66.7926C63.4086 67.5642 66.8035 69.2617 68.6553 68.0272L68.501 68.1815Z" fill="url(#paint42_linear_16_261)"/>
<path fill-rule="evenodd" clip-rule="evenodd" d="M68.5003 68.1812C70.5063 66.7924 71.7408 65.4036 73.284 63.5518C74.8271 61.7 75.9073 60.1569 76.9875 57.9965C77.9134 55.9904 75.753 53.0584 74.6728 51.5153C73.9012 50.5894 73.284 49.3549 72.6667 48.429C71.5865 46.7316 70.352 45.0341 69.1175 43.491C65.7226 39.0159 61.7104 35.0038 57.081 31.7632C51.5257 27.9053 45.8161 23.8932 40.1065 20.1896C37.1746 22.5043 34.0883 25.4363 31.7736 28.3682C29.3046 31.3002 26.9899 34.6951 25.1381 37.9357V38.09C29.7675 43.1824 34.5512 47.9661 39.335 52.9041C43.3471 56.9163 47.9765 60.3112 52.9146 62.9345C54.7663 63.8604 56.4638 64.7863 58.3155 65.5579C59.3957 66.0208 60.6302 66.4837 61.7104 66.9467C63.4079 67.7182 66.6485 69.4157 68.5003 68.1812Z" fill="url(#paint43_linear_16_261)"/>
<path fill-rule="evenodd" clip-rule="evenodd" d="M68.5004 68.0269C67.1116 68.9528 64.7969 68.0269 61.8649 66.7924C58.9329 65.5578 48.4396 61.8543 39.4894 52.7498C30.5392 43.6453 25.2926 37.9357 25.2926 37.9357C27.1443 34.6951 29.459 31.1459 31.928 28.3682C34.2427 25.5906 37.4833 22.5043 40.261 20.1896C40.261 20.1896 46.7422 24.3561 57.2355 31.7632C67.7288 39.1702 72.9755 49.0463 74.8273 51.5153C76.5247 53.9843 77.7592 56.299 77.142 57.8422C76.0618 60.1569 74.9816 61.3914 73.4384 63.3975C71.8953 65.2492 70.8151 66.4837 68.6547 68.0269H68.5004Z" fill="url(#paint44_linear_16_261)"/>
<path d="M67.2668 66.0211C66.0323 66.947 63.8719 66.0211 61.2486 64.9409C58.6252 63.7064 49.0578 60.4658 40.8792 52.1329C32.7005 43.7999 30.0772 40.405 30.0772 40.405C31.6203 37.4731 33.935 34.2325 36.0954 31.7635C38.2558 29.1401 41.0335 26.3625 43.6568 24.3564C43.6568 24.3564 47.5146 26.3625 57.0821 33.1523C66.6495 39.7878 71.4333 48.8923 73.1307 51.207C74.6738 53.5217 75.9084 55.5278 75.1368 56.9166C74.0566 59.077 73.1307 60.1572 71.7419 61.8546C70.3531 63.5521 69.2729 64.6323 67.4211 66.0211H67.2668Z" fill="url(#paint45_linear_16_261)"/>
<path d="M66.9579 66.0211C65.7233 66.947 63.563 66.0211 60.9396 64.9409C58.3163 63.7064 48.7488 60.4658 40.5702 52.1329C32.3916 43.7999 29.7682 40.405 29.7682 40.405C31.3114 37.4731 33.6261 34.2325 35.7865 31.7635C37.9469 29.1401 40.7245 26.3625 43.3479 24.3564C43.3479 24.3564 47.2057 26.3625 56.7732 33.1523C66.3406 39.7878 71.1243 48.8923 72.8218 51.207C74.3649 53.5217 75.5994 55.5278 74.8279 56.9166C73.7477 59.077 72.8218 60.1572 71.433 61.8546C70.0441 63.5521 68.9639 64.6323 67.1122 66.0211H66.9579Z" fill="url(#paint46_linear_16_261)"/>
<path fill-rule="evenodd" clip-rule="evenodd" d="M41.9591 44.2623C40.7246 45.6511 38.7185 45.8054 37.3297 44.5709C35.9409 43.3364 35.7866 41.3303 36.8667 39.9415C38.1013 38.5526 40.1073 38.3983 41.4962 39.4785C42.885 40.713 43.0393 42.7191 41.9591 44.1079V44.2623Z" fill="url(#paint47_linear_16_261)"/>
<path fill-rule="evenodd" clip-rule="evenodd" d="M41.8036 44.1076C40.7234 45.3421 38.8716 45.4964 37.4828 44.4162C36.2483 43.336 36.0939 41.4843 37.1741 40.0954C38.2543 38.8609 40.1061 38.7066 41.4949 39.7868C42.7294 40.867 42.8838 42.7188 41.8036 44.1076Z" fill="url(#paint48_linear_16_261)"/>
<path fill-rule="evenodd" clip-rule="evenodd" d="M41.6492 43.9533C40.569 45.1878 38.7173 45.3421 37.4828 44.2619C36.2483 43.1817 36.0939 41.33 37.1741 40.0954C38.2543 38.8609 40.1061 38.7066 41.3406 39.7868C42.5751 40.867 42.7294 42.7188 41.6492 43.9533Z" fill="url(#paint49_linear_16_261)"/>
<path fill-rule="evenodd" clip-rule="evenodd" d="M37.4841 41.6387C37.4841 41.6387 37.4841 42.256 37.947 42.256H38.8729L38.7186 43.3362C38.7186 43.6448 38.7186 43.9534 39.1815 43.9534C39.1815 43.9534 39.7988 43.9534 39.7988 43.4905V42.5646L40.879 42.7189C41.1876 42.7189 41.4962 42.7189 41.4962 42.256C41.4962 42.256 41.4962 41.6387 41.0333 41.6387H40.1074L40.2617 40.5586C40.2617 40.2499 40.2617 39.9413 39.7988 39.9413C39.7988 39.9413 39.1815 39.9413 39.1815 40.4042V41.3301L38.1013 41.1758C37.7927 41.1758 37.4841 41.1758 37.4841 41.6387Z" fill="url(#paint50_linear_16_261)"/>
<path fill-rule="evenodd" clip-rule="evenodd" d="M37.6385 41.7936C37.6385 41.7936 37.9472 41.4849 38.1015 41.4849H39.1817L39.336 40.7134C39.336 40.559 39.6446 40.4047 39.7989 40.4047C39.9532 40.4047 40.1076 40.7133 40.1076 40.8676V41.9479L40.8791 42.1022C41.0334 42.1022 41.1877 42.2565 41.1877 42.5651C41.1877 42.7194 40.8791 42.8737 40.7248 42.8737H39.6446L39.4903 43.6453C39.4903 43.7996 39.336 43.9539 39.0273 43.9539C38.873 43.9539 38.7187 43.6453 38.7187 43.491V42.4108L37.9472 42.2565C37.7928 42.2565 37.6385 41.9479 37.6385 41.7936Z" fill="black"/>
<path fill-rule="evenodd" clip-rule="evenodd" d="M49.2114 35.7752C47.9769 37.164 45.9708 37.3183 44.582 36.0838C43.1932 34.8493 43.0388 32.8432 44.119 31.4544C45.3535 30.0656 47.3596 29.9113 48.7484 30.9915C50.1373 32.226 50.2916 34.2321 49.2114 35.6209V35.7752Z" fill="url(#paint51_linear_16_261)"/>
<path fill-rule="evenodd" clip-rule="evenodd" d="M48.9012 35.6205C47.821 36.8551 45.9693 37.0093 44.5805 35.9292C43.346 34.849 43.1916 32.9972 44.2718 31.6084C45.352 30.3739 47.2038 30.2196 48.5926 31.2998C49.8271 32.3799 49.9814 34.2317 48.9012 35.6205Z" fill="url(#paint52_linear_16_261)"/>
<path fill-rule="evenodd" clip-rule="evenodd" d="M48.9014 35.4662C47.8212 36.7007 45.9694 36.855 44.7349 35.7748C43.5004 34.6946 43.3461 32.8429 44.4263 31.6084C45.5065 30.3739 47.3583 30.2196 48.5928 31.2998C49.8273 32.3799 49.9816 34.2317 48.9014 35.4662Z" fill="url(#paint53_linear_16_261)"/>
<path fill-rule="evenodd" clip-rule="evenodd" d="M45.6604 31.9175C45.6604 31.9175 45.3518 32.3805 45.5061 32.6891L45.969 33.4607L45.1974 33.9236C45.1974 33.9236 44.8888 34.3866 45.0431 34.6952C45.0431 34.6952 45.5061 35.0038 45.8147 34.8495L46.5863 34.3866L47.0492 35.1581C47.0492 35.1581 47.5122 35.4668 47.8208 35.3125C47.8208 35.3125 48.1294 34.8495 47.9751 34.5409L47.5121 33.7693L48.2837 33.3064C48.2837 33.3064 48.5924 32.8434 48.438 32.5348C48.438 32.5348 47.9751 32.2262 47.6665 32.3805L46.8949 32.8434L46.432 32.0719C46.432 32.0719 45.969 31.7632 45.6604 31.9175Z" fill="url(#paint54_linear_16_261)"/>
<path fill-rule="evenodd" clip-rule="evenodd" d="M45.817 32.0712H46.2799L46.7429 32.9971L47.6688 32.5341H48.1317C48.1317 32.6884 48.1317 32.9971 48.1317 32.9971L47.2058 33.46L47.6688 34.3859V34.8488C47.5145 34.8488 47.2058 34.8488 47.2058 34.8488L46.7429 33.9229L45.817 34.3859H45.3541C45.3541 34.2316 45.3541 33.9229 45.3541 33.9229L46.2799 33.46L45.817 32.5341V32.0712Z" fill="black"/>
<path fill-rule="evenodd" clip-rule="evenodd" d="M16.1879 20.9611C16.1879 20.9611 18.5026 20.3438 20.0457 18.4921C21.5889 16.6403 22.5148 14.7885 21.8975 14.3256C21.2802 13.8626 19.5828 14.9428 18.0397 16.9489C16.4965 18.8007 15.5706 20.6525 16.1879 21.1154V20.9611Z" fill="#959696" stroke="#1B1B1B" stroke-width="0.462941" stroke-miterlimit="10"/>
<path fill-rule="evenodd" clip-rule="evenodd" d="M16.1905 20.9611C16.1905 20.9611 18.5052 20.3439 20.0483 18.4921C21.5914 16.6403 22.5173 14.7886 21.9001 14.3256L33.165 23.8931C33.9365 24.6647 32.0848 27.288 31.3132 28.0595C30.5416 28.9854 28.3812 31.3001 27.4554 30.5286L16.1905 20.9611Z" fill="url(#paint55_linear_16_261)"/>
<path fill-rule="evenodd" clip-rule="evenodd" d="M0.759079 10.4677C1.53065 11.085 3.99966 9.54186 6.31437 6.76421C8.62907 4.14088 9.70927 1.36323 8.9377 0.745972L28.2269 17.1032C29.4614 18.3377 26.6838 21.8869 25.6036 23.1215C24.5234 24.356 21.4371 27.7509 20.0483 26.825L0.759079 10.4677Z" fill="url(#paint56_linear_16_261)"/>
<path fill-rule="evenodd" clip-rule="evenodd" d="M0.913544 10.6222C1.68511 11.2395 4.15413 9.69634 6.46883 6.91869C8.78354 4.29536 9.86374 1.51771 9.09217 0.900452L28.3814 17.2577C29.6159 18.4922 26.8382 22.0414 25.758 23.2759C24.6779 24.5104 21.5916 27.9053 20.2028 26.9795L0.913544 10.6222Z" fill="white"/>
<path fill-rule="evenodd" clip-rule="evenodd" d="M0.759079 10.4677C1.53065 11.085 3.99966 9.54186 6.31437 6.76421C8.62907 4.14088 9.70927 1.36323 8.9377 0.745972L28.2269 17.1032C29.4614 18.3377 26.6838 21.8869 25.6036 23.1215C24.5234 24.356 21.4371 27.7509 20.0483 26.825L0.759079 10.4677Z" fill="url(#paint57_linear_16_261)"/>
<path fill-rule="evenodd" clip-rule="evenodd" d="M5.69818 7.53574L24.9874 23.893C24.9874 23.893 25.296 23.5844 25.296 23.43L6.00681 7.07279C6.00681 7.07279 5.69818 7.38142 5.69818 7.53574ZM4.7723 8.30731L24.2158 24.6646L24.5245 24.3559L5.23524 7.99867L4.9266 8.30731H4.7723ZM4.00073 9.07887L23.4443 25.4361C23.4443 25.4361 23.7529 25.2818 23.7529 25.1275L4.30935 8.77025C4.30935 8.77025 4.00073 8.92455 4.00073 9.07887ZM2.92054 9.85044L22.3641 26.2077C22.3641 26.2077 22.6727 26.0534 22.6727 25.8991L3.22916 9.54182C3.22916 9.54182 2.92054 9.69612 2.92054 9.85044ZM1.84033 10.4677L21.2839 26.8249C21.2839 26.8249 21.5925 26.8249 21.7468 26.6706L2.30328 10.3134C2.30328 10.3134 1.99465 10.3134 1.84033 10.4677ZM6.93268 5.99259L26.2219 22.3499C26.2219 22.3499 25.9133 22.6585 25.9133 22.8128L6.62406 6.45553C6.62406 6.45553 6.77837 6.14691 6.93268 5.99259ZM7.54994 5.06672L26.9935 21.424C26.9935 21.424 26.8392 21.7326 26.6849 21.8869L7.39564 5.52966C7.39564 5.52966 7.54994 5.22103 7.70426 5.06672H7.54994ZM8.16719 4.14083L27.6107 20.4981L27.3021 20.961L7.85857 4.60377L8.16719 4.14083ZM8.78445 2.90632L28.228 19.2636C28.228 19.2636 28.228 19.5722 28.0737 19.7265L8.63014 3.36926C8.63014 3.36926 8.63013 3.06064 8.78445 2.90632ZM9.2474 1.67181L28.6909 18.0291C28.6909 18.0291 28.6909 18.3377 28.6909 18.492L9.2474 2.13475C9.2474 2.13475 9.2474 1.82613 9.2474 1.67181Z" fill="url(#paint58_linear_16_261)"/>
<path fill-rule="evenodd" clip-rule="evenodd" d="M0.911819 10.4681C1.68339 11.0854 4.1524 9.54225 6.46711 6.76461C8.78181 4.14127 9.86201 1.36362 9.09044 0.746367C8.31887 0.129112 5.84986 1.67226 3.53515 4.44991C1.22045 7.07324 0.140251 9.85088 0.911819 10.4681Z" fill="white"/>
<path fill-rule="evenodd" clip-rule="evenodd" d="M0.757446 10.4681C1.52901 11.0854 3.99803 9.54225 6.31274 6.76461C8.62744 4.14127 9.70764 1.36362 8.93607 0.746367C8.1645 0.129112 5.69549 1.67226 3.38078 4.44991C1.06607 7.07324 -0.0141225 9.85088 0.757446 10.4681Z" fill="url(#paint59_linear_16_261)"/>
<path fill-rule="evenodd" clip-rule="evenodd" d="M0.295685 7.99872C0.295685 7.99872 2.7647 7.22715 4.46215 5.22107C6.1596 3.21499 7.08548 1.20891 6.46823 0.745972L7.54842 1.67186C8.4743 2.59774 6.31392 5.22108 5.54235 6.14696C4.77079 7.07284 2.45607 9.54186 1.37588 8.92461L0.295685 7.99872Z" fill="url(#paint60_linear_16_261)"/>
<path fill-rule="evenodd" clip-rule="evenodd" d="M0.449875 7.99886C0.449875 7.99886 2.9189 7.22728 4.61635 5.22121C6.3138 3.21513 7.23969 1.20905 6.62243 0.746107C6.00518 0.283166 4.15341 1.51768 2.45596 3.52376C0.758504 5.52984 -0.16738 7.53592 0.449875 7.99886Z" fill="white"/>
<path fill-rule="evenodd" clip-rule="evenodd" d="M0.29541 7.99886C0.29541 7.99886 2.76442 7.22728 4.46187 5.22121C6.15932 3.21513 7.08521 1.20905 6.46795 0.746107C5.8507 0.283166 3.99894 1.51768 2.30149 3.52376C0.60404 5.52984 -0.321845 7.53592 0.29541 7.99886Z" fill="url(#paint61_linear_16_261)"/>
<defs>
<linearGradient id="paint0_linear_16_261" x1="136.419" y1="144.054" x2="134.007" y2="141.409" gradientUnits="userSpaceOnUse">
<stop stop-color="#0B0C0C"/>
<stop offset="0.08" stop-color="#0E0F0F"/>
<stop offset="0.16" stop-color="#191A1A"/>
<stop offset="0.24" stop-color="#2D2F2E"/>
<stop offset="0.71" stop-color="#DCDDDE"/>
<stop offset="0.73" stop-color="#D8D9DA"/>
<stop offset="0.74" stop-color="#CDCECF"/>
<stop offset="0.76" stop-color="#BCBDBD"/>
<stop offset="0.78" stop-color="#A3A4A4"/>
<stop offset="0.79" stop-color="#828383"/>
<stop offset="0.81" stop-color="#565756"/>
<stop offset="0.94" stop-color="#8B8C8C"/>
</linearGradient>
<linearGradient id="paint1_linear_16_261" x1="128.298" y1="151.279" x2="126.004" y2="148.734" gradientUnits="userSpaceOnUse">
<stop stop-color="#0B0C0C"/>
<stop offset="0.08" stop-color="#0E0F0F"/>
<stop offset="0.16" stop-color="#191A1A"/>
<stop offset="0.24" stop-color="#2D2F2E"/>
<stop offset="0.71" stop-color="#DCDDDE"/>
<stop offset="0.73" stop-color="#D8D9DA"/>
<stop offset="0.74" stop-color="#CDCECF"/>
<stop offset="0.76" stop-color="#BCBDBD"/>
<stop offset="0.78" stop-color="#A3A4A4"/>
<stop offset="0.79" stop-color="#828383"/>
<stop offset="0.81" stop-color="#565756"/>
<stop offset="0.94" stop-color="#8B8C8C"/>
</linearGradient>
<linearGradient id="paint2_linear_16_261" x1="130.601" y1="156.766" x2="120.618" y2="146.107" gradientUnits="userSpaceOnUse">
<stop stop-color="#BCBEC0"/>
<stop offset="0.04" stop-color="#B8BABC"/>
<stop offset="0.08" stop-color="#ADAFB1"/>
<stop offset="0.12" stop-color="#9B9D9E"/>
<stop offset="0.16" stop-color="#818384"/>
<stop offset="0.2" stop-color="#606262"/>
<stop offset="0.23" stop-color="#383A39"/>
<stop offset="0.24" stop-color="#2D2F2E"/>
<stop offset="0.71" stop-color="#DCDDDE"/>
<stop offset="0.75" stop-color="#CECFD0"/>
<stop offset="0.83" stop-color="#ABACAD"/>
<stop offset="0.95" stop-color="#737474"/>
<stop offset="1" stop-color="#565756"/>
</linearGradient>
<linearGradient id="paint3_linear_16_261" x1="185.715" y1="201.523" x2="181.739" y2="205.032" gradientUnits="userSpaceOnUse">
<stop stop-color="#0B0C0C"/>
<stop offset="0.05" stop-color="#0E0F0F"/>
<stop offset="0.1" stop-color="#191A1A"/>
<stop offset="0.14" stop-color="#2B2D2C"/>
<stop offset="0.19" stop-color="#444746"/>
<stop offset="0.23" stop-color="#656967"/>
<stop offset="0.24" stop-color="#6D716F"/>
<stop offset="0.71" stop-color="#FDFEFF"/>
<stop offset="0.73" stop-color="#F9FAFB"/>
<stop offset="0.75" stop-color="#EFF0F0"/>
<stop offset="0.77" stop-color="#DDDEDE"/>
<stop offset="0.79" stop-color="#C4C5C5"/>
<stop offset="0.8" stop-color="#A4A5A4"/>
<stop offset="0.81" stop-color="#939493"/>
<stop offset="0.94" stop-color="#BDBEBE"/>
</linearGradient>
<linearGradient id="paint4_linear_16_261" x1="179.043" y1="192.447" x2="173.555" y2="197.507" gradientUnits="userSpaceOnUse">
<stop stop-color="#0B0C0C"/>
<stop offset="0.06" stop-color="#0E0F0F"/>
<stop offset="0.12" stop-color="#191A1A"/>
<stop offset="0.18" stop-color="#2B2D2C"/>
<stop offset="0.23" stop-color="#444745"/>
<stop offset="0.24" stop-color="#4C4F4D"/>
<stop offset="0.71" stop-color="#E1E2E3"/>
<stop offset="0.73" stop-color="#DDDEDF"/>
<stop offset="0.75" stop-color="#D3D4D4"/>
<stop offset="0.77" stop-color="#C1C2C2"/>
<stop offset="0.78" stop-color="#A8A9A9"/>
<stop offset="0.8" stop-color="#888A88"/>
<stop offset="0.81" stop-color="#6F716F"/>
<stop offset="0.94" stop-color="#9D9E9E"/>
</linearGradient>
<linearGradient id="paint5_linear_16_261" x1="179.043" y1="192.447" x2="173.555" y2="197.507" gradientUnits="userSpaceOnUse">
<stop stop-color="#0B0C0C"/>
<stop offset="0.06" stop-color="#0E0F0F"/>
<stop offset="0.12" stop-color="#191A1A"/>
<stop offset="0.18" stop-color="#2B2D2C"/>
<stop offset="0.23" stop-color="#444745"/>
<stop offset="0.24" stop-color="#4C4F4D"/>
<stop offset="0.71" stop-color="#E1E2E3"/>
<stop offset="0.73" stop-color="#DDDEDF"/>
<stop offset="0.75" stop-color="#D3D4D4"/>
<stop offset="0.77" stop-color="#C1C2C2"/>
<stop offset="0.78" stop-color="#A8A9A9"/>
<stop offset="0.8" stop-color="#888A88"/>
<stop offset="0.81" stop-color="#6F716F"/>
<stop offset="0.94" stop-color="#9D9E9E"/>
</linearGradient>
<linearGradient id="paint6_linear_16_261" x1="179.08" y1="192.881" x2="173.674" y2="197.606" gradientUnits="userSpaceOnUse">
<stop stop-color="#0B0C0C"/>
<stop offset="0.1" stop-color="#0E0F0F"/>
<stop offset="0.2" stop-color="#191A1A"/>
<stop offset="0.29" stop-color="#2B2D2D"/>
<stop offset="0.38" stop-color="#444647"/>
<stop offset="0.47" stop-color="#656769"/>
<stop offset="0.54" stop-color="#898C8E"/>
<stop offset="0.72" stop-color="#6A6E6F"/>
<stop offset="1" stop-color="#3F4444"/>
</linearGradient>
<linearGradient id="paint7_linear_16_261" x1="174.137" y1="187.493" x2="169.555" y2="192.915" gradientUnits="userSpaceOnUse">
<stop stop-color="#4C4F4D"/>
<stop offset="1" stop-color="#E1E2E3"/>
</linearGradient>
<linearGradient id="paint8_linear_16_261" x1="168.878" y1="184.869" x2="166.849" y2="186.791" gradientUnits="userSpaceOnUse">
<stop stop-color="#0B0C0C"/>
<stop offset="0.08" stop-color="#0E0F0F"/>
<stop offset="0.16" stop-color="#191A1A"/>
<stop offset="0.24" stop-color="#2D2F2E"/>
<stop offset="0.71" stop-color="#DCDDDE"/>
<stop offset="0.73" stop-color="#D8D9DA"/>
<stop offset="0.74" stop-color="#CDCECF"/>
<stop offset="0.76" stop-color="#BCBDBD"/>
<stop offset="0.78" stop-color="#A3A4A4"/>
<stop offset="0.79" stop-color="#828383"/>
<stop offset="0.81" stop-color="#565756"/>
<stop offset="0.94" stop-color="#8B8C8C"/>
</linearGradient>
<linearGradient id="paint9_linear_16_261" x1="167.308" y1="183.139" x2="165.515" y2="185.261" gradientUnits="userSpaceOnUse">
<stop offset="0.13" stop-color="#0B0C0C"/>
<stop offset="0.24" stop-color="#0E0F0F"/>
<stop offset="0.35" stop-color="#191A1A"/>
<stop offset="0.45" stop-color="#2B2D2D"/>
<stop offset="0.54" stop-color="#454747"/>
<stop offset="0.64" stop-color="#656869"/>
<stop offset="0.68" stop-color="#757879"/>
<stop offset="0.82" stop-color="#525555"/>
<stop offset="1" stop-color="#272A2A"/>
</linearGradient>
<linearGradient id="paint10_linear_16_261" x1="168.152" y1="184.054" x2="166.359" y2="186.175" gradientUnits="userSpaceOnUse">
<stop offset="0.13" stop-color="#0B0C0C"/>
<stop offset="0.24" stop-color="#0E0F0F"/>
<stop offset="0.35" stop-color="#191A1A"/>
<stop offset="0.45" stop-color="#2B2D2D"/>
<stop offset="0.54" stop-color="#454747"/>
<stop offset="0.64" stop-color="#656869"/>
<stop offset="0.68" stop-color="#757879"/>
<stop offset="0.82" stop-color="#525555"/>
<stop offset="1" stop-color="#272A2A"/>
</linearGradient>
<linearGradient id="paint11_linear_16_261" x1="168.996" y1="184.968" x2="167.203" y2="187.09" gradientUnits="userSpaceOnUse">
<stop offset="0.13" stop-color="#0B0C0C"/>
<stop offset="0.24" stop-color="#0E0F0F"/>
<stop offset="0.35" stop-color="#191A1A"/>
<stop offset="0.45" stop-color="#2B2D2D"/>
<stop offset="0.54" stop-color="#454747"/>
<stop offset="0.64" stop-color="#656869"/>
<stop offset="0.68" stop-color="#757879"/>
<stop offset="0.82" stop-color="#525555"/>
<stop offset="1" stop-color="#272A2A"/>
</linearGradient>
<linearGradient id="paint12_linear_16_261" x1="169.836" y1="185.884" x2="168.043" y2="188.005" gradientUnits="userSpaceOnUse">
<stop offset="0.13" stop-color="#0B0C0C"/>
<stop offset="0.24" stop-color="#0E0F0F"/>
<stop offset="0.35" stop-color="#191A1A"/>
<stop offset="0.45" stop-color="#2B2D2D"/>
<stop offset="0.54" stop-color="#454747"/>
<stop offset="0.64" stop-color="#656869"/>
<stop offset="0.68" stop-color="#757879"/>
<stop offset="0.82" stop-color="#525555"/>
<stop offset="1" stop-color="#272A2A"/>
</linearGradient>
<linearGradient id="paint13_linear_16_261" x1="170.68" y1="186.798" x2="168.888" y2="188.92" gradientUnits="userSpaceOnUse">
<stop offset="0.13" stop-color="#0B0C0C"/>
<stop offset="0.24" stop-color="#0E0F0F"/>
<stop offset="0.35" stop-color="#191A1A"/>
<stop offset="0.45" stop-color="#2B2D2D"/>
<stop offset="0.54" stop-color="#454747"/>
<stop offset="0.64" stop-color="#656869"/>
<stop offset="0.68" stop-color="#757879"/>
<stop offset="0.82" stop-color="#525555"/>
<stop offset="1" stop-color="#272A2A"/>
</linearGradient>
<linearGradient id="paint14_linear_16_261" x1="171.407" y1="187.613" x2="169.614" y2="189.734" gradientUnits="userSpaceOnUse">
<stop offset="0.13" stop-color="#0B0C0C"/>
<stop offset="0.24" stop-color="#0E0F0F"/>
<stop offset="0.35" stop-color="#191A1A"/>
<stop offset="0.45" stop-color="#2B2D2D"/>
<stop offset="0.54" stop-color="#454747"/>
<stop offset="0.64" stop-color="#656869"/>
<stop offset="0.68" stop-color="#757879"/>
<stop offset="0.82" stop-color="#525555"/>
<stop offset="1" stop-color="#272A2A"/>
</linearGradient>
<linearGradient id="paint15_linear_16_261" x1="172.251" y1="188.527" x2="170.458" y2="190.649" gradientUnits="userSpaceOnUse">
<stop offset="0.13" stop-color="#0B0C0C"/>
<stop offset="0.24" stop-color="#0E0F0F"/>
<stop offset="0.35" stop-color="#191A1A"/>
<stop offset="0.45" stop-color="#2B2D2D"/>
<stop offset="0.54" stop-color="#454747"/>
<stop offset="0.64" stop-color="#656869"/>
<stop offset="0.68" stop-color="#757879"/>
<stop offset="0.82" stop-color="#525555"/>
<stop offset="1" stop-color="#272A2A"/>
</linearGradient>
<linearGradient id="paint16_linear_16_261" x1="148.339" y1="160.642" x2="144.481" y2="164.251" gradientUnits="userSpaceOnUse">
<stop stop-color="#0B0C0C"/>
<stop offset="0.05" stop-color="#0E0F0F"/>
<stop offset="0.1" stop-color="#191A1A"/>
<stop offset="0.14" stop-color="#2B2D2C"/>
<stop offset="0.19" stop-color="#444746"/>
<stop offset="0.23" stop-color="#656967"/>
<stop offset="0.24" stop-color="#6D716F"/>
<stop offset="0.71" stop-color="#FDFEFF"/>
<stop offset="0.73" stop-color="#F9FAFB"/>
<stop offset="0.75" stop-color="#EFF0F0"/>
<stop offset="0.77" stop-color="#DDDEDE"/>
<stop offset="0.79" stop-color="#C4C5C5"/>
<stop offset="0.8" stop-color="#A4A5A4"/>
<stop offset="0.81" stop-color="#939493"/>
<stop offset="0.94" stop-color="#BDBEBE"/>
</linearGradient>
<linearGradient id="paint17_linear_16_261" x1="94.4917" y1="84.0242" x2="75.5671" y2="106.418" gradientUnits="userSpaceOnUse">
<stop stop-color="#0B0B0B"/>
<stop offset="0.12" stop-color="#535455"/>
<stop offset="0.14" stop-color="#5E5F60"/>
<stop offset="0.18" stop-color="#7D7E7F"/>
<stop offset="0.23" stop-color="#B0B0B1"/>
<stop offset="0.29" stop-color="#F5F5F5"/>
<stop offset="0.3" stop-color="white"/>
<stop offset="0.37" stop-color="#FBFBFB"/>
<stop offset="0.43" stop-color="#F0F0F0"/>
<stop offset="0.5" stop-color="#DDDDDD"/>
<stop offset="0.56" stop-color="#C3C3C3"/>
<stop offset="0.62" stop-color="#A1A1A1"/>
<stop offset="0.68" stop-color="#787879"/>
<stop offset="0.74" stop-color="#4A4A4B"/>
<stop offset="1" stop-color="#868688"/>
</linearGradient>
<linearGradient id="paint18_linear_16_261" x1="92.744" y1="42.3423" x2="77.2062" y2="146.796" gradientUnits="userSpaceOnUse">
<stop stop-color="#64696B"/>
<stop offset="0.12" stop-color="#B2B3B5"/>
<stop offset="0.2" stop-color="#BDBEC0"/>
<stop offset="0.32" stop-color="#DCDCDE"/>
<stop offset="0.37" stop-color="#EAEAEC"/>
<stop offset="0.44" stop-color="#E6E6E8"/>
<stop offset="0.5" stop-color="#DBDCDE"/>
<stop offset="0.56" stop-color="#C8CBCD"/>
<stop offset="0.61" stop-color="#B3B7BA"/>
<stop offset="0.85" stop-color="#D9DADC"/>
</linearGradient>
<linearGradient id="paint19_linear_16_261" x1="130.266" y1="156.685" x2="120.736" y2="146.207" gradientUnits="userSpaceOnUse">
<stop stop-color="#0B0C0C"/>
<stop offset="0.11" stop-color="#0E0F0F"/>
<stop offset="0.21" stop-color="#191A1A"/>
<stop offset="0.3" stop-color="#2B2D2D"/>
<stop offset="0.39" stop-color="#454747"/>
<stop offset="0.49" stop-color="#656869"/>
<stop offset="0.54" stop-color="#7F8283"/>
<stop offset="0.77" stop-color="#525555"/>
<stop offset="1" stop-color="#272A2A"/>
</linearGradient>
<linearGradient id="paint20_linear_16_261" x1="130.268" y1="156.685" x2="120.737" y2="146.207" gradientUnits="userSpaceOnUse">
<stop stop-color="#0B0C0C"/>
<stop offset="0.11" stop-color="#0E0F0F"/>
<stop offset="0.21" stop-color="#191A1A"/>
<stop offset="0.3" stop-color="#2B2D2D"/>
<stop offset="0.39" stop-color="#454747"/>
<stop offset="0.49" stop-color="#656869"/>
<stop offset="0.54" stop-color="#7F8283"/>
<stop offset="0.77" stop-color="#525555"/>
<stop offset="1" stop-color="#272A2A"/>
</linearGradient>
<linearGradient id="paint21_linear_16_261" x1="130.265" y1="156.685" x2="120.734" y2="146.207" gradientUnits="userSpaceOnUse">
<stop stop-color="#0B0C0C"/>
<stop offset="0.11" stop-color="#0E0F0F"/>
<stop offset="0.21" stop-color="#191A1A"/>
<stop offset="0.3" stop-color="#2B2D2D"/>
<stop offset="0.39" stop-color="#454747"/>
<stop offset="0.49" stop-color="#656869"/>
<stop offset="0.54" stop-color="#7F8283"/>
<stop offset="0.77" stop-color="#525555"/>
<stop offset="1" stop-color="#272A2A"/>
</linearGradient>
<linearGradient id="paint22_linear_16_261" x1="130.266" y1="156.685" x2="120.736" y2="146.206" gradientUnits="userSpaceOnUse">
<stop stop-color="#0B0C0C"/>
<stop offset="0.11" stop-color="#0E0F0F"/>
<stop offset="0.21" stop-color="#191A1A"/>
<stop offset="0.3" stop-color="#2B2D2D"/>
<stop offset="0.39" stop-color="#454747"/>
<stop offset="0.49" stop-color="#656869"/>
<stop offset="0.54" stop-color="#7F8283"/>
<stop offset="0.77" stop-color="#525555"/>
<stop offset="1" stop-color="#272A2A"/>
</linearGradient>
<linearGradient id="paint23_linear_16_261" x1="130.267" y1="156.685" x2="120.836" y2="146.089" gradientUnits="userSpaceOnUse">
<stop stop-color="#0B0C0C"/>
<stop offset="0.11" stop-color="#0E0F0F"/>
<stop offset="0.21" stop-color="#191A1A"/>
<stop offset="0.3" stop-color="#2B2D2D"/>
<stop offset="0.39" stop-color="#454747"/>
<stop offset="0.49" stop-color="#656869"/>
<stop offset="0.54" stop-color="#7F8283"/>
<stop offset="0.77" stop-color="#525555"/>
<stop offset="1" stop-color="#272A2A"/>
</linearGradient>
<linearGradient id="paint24_linear_16_261" x1="130.268" y1="156.685" x2="120.837" y2="146.089" gradientUnits="userSpaceOnUse">
<stop stop-color="#0B0C0C"/>
<stop offset="0.11" stop-color="#0E0F0F"/>
<stop offset="0.21" stop-color="#191A1A"/>
<stop offset="0.3" stop-color="#2B2D2D"/>
<stop offset="0.39" stop-color="#454747"/>
<stop offset="0.49" stop-color="#656869"/>
<stop offset="0.54" stop-color="#7F8283"/>
<stop offset="0.77" stop-color="#525555"/>
<stop offset="1" stop-color="#272A2A"/>
</linearGradient>
<linearGradient id="paint25_linear_16_261" x1="130.266" y1="156.684" x2="120.835" y2="146.088" gradientUnits="userSpaceOnUse">
<stop stop-color="#0B0C0C"/>
<stop offset="0.11" stop-color="#0E0F0F"/>
<stop offset="0.21" stop-color="#191A1A"/>
<stop offset="0.3" stop-color="#2B2D2D"/>
<stop offset="0.39" stop-color="#454747"/>
<stop offset="0.49" stop-color="#656869"/>
<stop offset="0.54" stop-color="#7F8283"/>
<stop offset="0.77" stop-color="#525555"/>
<stop offset="1" stop-color="#272A2A"/>
</linearGradient>
<linearGradient id="paint26_linear_16_261" x1="130.267" y1="156.685" x2="120.836" y2="146.089" gradientUnits="userSpaceOnUse">
<stop stop-color="#0B0C0C"/>
<stop offset="0.11" stop-color="#0E0F0F"/>
<stop offset="0.21" stop-color="#191A1A"/>
<stop offset="0.3" stop-color="#2B2D2D"/>
<stop offset="0.39" stop-color="#454747"/>
<stop offset="0.49" stop-color="#656869"/>
<stop offset="0.54" stop-color="#7F8283"/>
<stop offset="0.77" stop-color="#525555"/>
<stop offset="1" stop-color="#272A2A"/>
</linearGradient>
<linearGradient id="paint27_linear_16_261" x1="130.268" y1="156.685" x2="120.837" y2="146.089" gradientUnits="userSpaceOnUse">
<stop stop-color="#0B0C0C"/>
<stop offset="0.11" stop-color="#0E0F0F"/>
<stop offset="0.21" stop-color="#191A1A"/>
<stop offset="0.3" stop-color="#2B2D2D"/>
<stop offset="0.39" stop-color="#454747"/>
<stop offset="0.49" stop-color="#656869"/>
<stop offset="0.54" stop-color="#7F8283"/>
<stop offset="0.77" stop-color="#525555"/>
<stop offset="1" stop-color="#272A2A"/>
</linearGradient>
<linearGradient id="paint28_linear_16_261" x1="102.322" y1="117.311" x2="107.533" y2="118.078" gradientUnits="userSpaceOnUse">
<stop stop-color="#4C4F4D"/>
<stop offset="1" stop-color="#E1E2E3"/>
</linearGradient>
<linearGradient id="paint29_linear_16_261" x1="102.441" y1="117.411" x2="107.417" y2="117.979" gradientUnits="userSpaceOnUse">
<stop stop-color="#CCCDCE"/>
<stop offset="1" stop-color="#070908"/>
</linearGradient>
<linearGradient id="paint30_linear_16_261" x1="107.319" y1="118.097" x2="102.543" y2="117.293" gradientUnits="userSpaceOnUse">
<stop stop-color="#4C4F4D"/>
<stop offset="1" stop-color="#E1E2E3"/>
</linearGradient>
<linearGradient id="paint31_linear_16_261" x1="106.483" y1="115.977" x2="103.594" y2="119.395" gradientUnits="userSpaceOnUse">
<stop/>
<stop offset="1" stop-color="#7C7E81"/>
</linearGradient>
<linearGradient id="paint32_linear_16_261" x1="93.381" y1="61.6699" x2="86.9002" y2="87.5086" gradientUnits="userSpaceOnUse">
<stop offset="0.19" stop-color="#0B0B0B"/>
<stop offset="0.2" stop-color="#151515"/>
<stop offset="0.29" stop-color="#4B4B4B"/>
<stop offset="0.37" stop-color="#7B7B7B"/>
<stop offset="0.46" stop-color="#A4A4A4"/>
<stop offset="0.55" stop-color="#C5C5C5"/>
<stop offset="0.64" stop-color="#DEDEDE"/>
<stop offset="0.73" stop-color="#F0F0F0"/>
<stop offset="0.83" stop-color="#FBFBFB"/>
<stop offset="0.94" stop-color="white"/>
</linearGradient>
<linearGradient id="paint33_linear_16_261" x1="232.36" y1="142.748" x2="231.699" y2="144.008" gradientUnits="userSpaceOnUse">
<stop stop-color="#939493"/>
<stop offset="0.04" stop-color="#A4A5A4"/>
<stop offset="0.12" stop-color="#C4C5C5"/>
<stop offset="0.2" stop-color="#DDDEDE"/>
<stop offset="0.29" stop-color="#EFF0F0"/>
<stop offset="0.38" stop-color="#F9FAFB"/>
<stop offset="0.48" stop-color="#FDFEFF"/>
<stop offset="0.51" stop-color="#0B0C0C"/>
<stop offset="0.65" stop-color="#313333"/>
<stop offset="0.8" stop-color="#515553"/>
<stop offset="0.92" stop-color="#656967"/>
<stop offset="1" stop-color="#6D716F"/>
</linearGradient>
<linearGradient id="paint34_linear_16_261" x1="224.847" y1="131.552" x2="221.045" y2="138.441" gradientUnits="userSpaceOnUse">
<stop stop-color="#EDEDEE"/>
<stop offset="0.17" stop-color="#2A3537"/>
<stop offset="0.2" stop-color="#333D3F"/>
<stop offset="0.25" stop-color="#4C5557"/>
<stop offset="0.32" stop-color="#747B7D"/>
<stop offset="0.4" stop-color="#ACB1B2"/>
<stop offset="0.48" stop-color="#F1F2F2"/>
<stop offset="0.57" stop-color="#D2D2D2"/>
<stop offset="0.75" stop-color="#898989"/>
<stop offset="0.77" stop-color="#A8A8A8"/>
<stop offset="0.81" stop-color="#D7D7D7"/>
<stop offset="0.84" stop-color="#F4F4F4"/>
<stop offset="0.86" stop-color="white"/>
<stop offset="1" stop-color="#9A9A9A"/>
</linearGradient>
<linearGradient id="paint35_linear_16_261" x1="216.356" y1="130.842" x2="225.856" y2="137.052" gradientUnits="userSpaceOnUse">
<stop offset="0.53" stop-color="#0B0B0B"/>
<stop offset="0.55" stop-color="#232323"/>
<stop offset="0.62" stop-color="#5C5C5C"/>
<stop offset="0.69" stop-color="#8E8E8E"/>
<stop offset="0.76" stop-color="#B6B6B6"/>
<stop offset="0.82" stop-color="#D6D6D6"/>
<stop offset="0.88" stop-color="#ECECEC"/>
<stop offset="0.94" stop-color="#FAFAFA"/>
<stop offset="0.99" stop-color="white"/>
</linearGradient>
<linearGradient id="paint36_linear_16_261" x1="145.806" y1="63.9479" x2="117.121" y2="97.8928" gradientUnits="userSpaceOnUse">
<stop stop-color="#0B0B0B"/>
<stop offset="0.12" stop-color="#535455"/>
<stop offset="0.14" stop-color="#5E5F60"/>
<stop offset="0.18" stop-color="#7D7E7F"/>
<stop offset="0.23" stop-color="#B0B0B1"/>
<stop offset="0.29" stop-color="#F5F5F5"/>
<stop offset="0.3" stop-color="white"/>
<stop offset="0.37" stop-color="#FBFBFB"/>
<stop offset="0.44" stop-color="#F0F0F0"/>
<stop offset="0.51" stop-color="#DDDDDD"/>
<stop offset="0.58" stop-color="#C3C3C3"/>
<stop offset="0.65" stop-color="#A1A1A1"/>
<stop offset="0.71" stop-color="#787879"/>
<stop offset="0.77" stop-color="#4A4A4B"/>
<stop offset="1" stop-color="#868688"/>
</linearGradient>
<linearGradient id="paint37_linear_16_261" x1="138.114" y1="7.54464" x2="124.443" y2="156.408" gradientUnits="userSpaceOnUse">
<stop stop-color="#64696B"/>
<stop offset="0.12" stop-color="#B2B3B5"/>
<stop offset="0.2" stop-color="#BDBEC0"/>
<stop offset="0.32" stop-color="#DCDCDE"/>
<stop offset="0.37" stop-color="#EAEAEC"/>
<stop offset="0.44" stop-color="#E6E6E8"/>
<stop offset="0.5" stop-color="#DBDCDE"/>
<stop offset="0.56" stop-color="#C8CBCD"/>
<stop offset="0.61" stop-color="#B3B7BA"/>
<stop offset="0.85" stop-color="#D9DADC"/>
</linearGradient>
<linearGradient id="paint38_linear_16_261" x1="85.0102" y1="118.438" x2="135.358" y2="77.7463" gradientUnits="userSpaceOnUse">
<stop offset="0.52" stop-color="#0B0B0B"/>
<stop offset="0.53" stop-color="#151515"/>
<stop offset="0.55" stop-color="#4B4B4B"/>
<stop offset="0.57" stop-color="#7B7B7B"/>
<stop offset="0.59" stop-color="#A4A4A4"/>
<stop offset="0.61" stop-color="#C5C5C5"/>
<stop offset="0.63" stop-color="#DEDEDE"/>
<stop offset="0.66" stop-color="#F0F0F0"/>
<stop offset="0.68" stop-color="#FBFBFB"/>
<stop offset="0.71" stop-color="white"/>
</linearGradient>
<linearGradient id="paint39_linear_16_261" x1="211.86" y1="126.839" x2="222.33" y2="132.858" gradientUnits="userSpaceOnUse">
<stop offset="0.42" stop-color="white"/>
<stop offset="0.55" stop-color="#0B0B0B"/>
<stop offset="0.71" stop-color="#707070"/>
<stop offset="0.85" stop-color="#BDBDBD"/>
<stop offset="0.95" stop-color="#ECECEC"/>
<stop offset="0.99" stop-color="white"/>
</linearGradient>
<linearGradient id="paint40_linear_16_261" x1="220.053" y1="127.903" x2="205.727" y2="128.12" gradientUnits="userSpaceOnUse">
<stop stop-color="#CBCCCE"/>
<stop offset="1" stop-color="#060907"/>
</linearGradient>
<linearGradient id="paint41_linear_16_261" x1="218.675" y1="127.143" x2="206.887" y2="128.899" gradientUnits="userSpaceOnUse">
<stop stop-color="#4A4F4C"/>
<stop offset="1" stop-color="#E0E1E3"/>
</linearGradient>
<linearGradient id="paint42_linear_16_261" x1="60.0444" y1="33.6999" x2="41.8171" y2="55.269" gradientUnits="userSpaceOnUse">
<stop offset="0.05" stop-color="#0B0C0C"/>
<stop offset="0.07" stop-color="#0E0F0F"/>
<stop offset="0.08" stop-color="#191A1A"/>
<stop offset="0.1" stop-color="#303332"/>
<stop offset="0.25" stop-color="#333636"/>
<stop offset="0.41" stop-color="#3F4242"/>
<stop offset="0.56" stop-color="#535556"/>
<stop offset="0.71" stop-color="#6E7172"/>
<stop offset="0.78" stop-color="#7F8183"/>
<stop offset="0.86" stop-color="#DFE1E2"/>
<stop offset="0.87" stop-color="#DBDDDE"/>
<stop offset="0.88" stop-color="#D0D2D3"/>
<stop offset="0.89" stop-color="#A5A7A8"/>
<stop offset="0.9" stop-color="#848687"/>
<stop offset="0.91" stop-color="#3D3F40"/>
</linearGradient>
<linearGradient id="paint43_linear_16_261" x1="23.0527" y1="45.6753" x2="69.9542" y2="43.4889" gradientUnits="userSpaceOnUse">
<stop stop-color="white"/>
<stop offset="1"/>
</linearGradient>
<linearGradient id="paint44_linear_16_261" x1="24.6863" y1="35.1356" x2="78.8224" y2="52.5993" gradientUnits="userSpaceOnUse">
<stop stop-color="#0B0C0C"/>
<stop offset="0.51" stop-color="#303332"/>
<stop offset="1" stop-color="#737575"/>
</linearGradient>
<linearGradient id="paint45_linear_16_261" x1="76.6221" y1="53.7699" x2="29.7985" y2="36.0207" gradientUnits="userSpaceOnUse">
<stop stop-color="white"/>
<stop offset="1"/>
</linearGradient>
<linearGradient id="paint46_linear_16_261" x1="75.8598" y1="52.5199" x2="29.0014" y2="36.9637" gradientUnits="userSpaceOnUse">
<stop stop-color="#0B0C0C"/>
<stop offset="0.54" stop-color="#303332"/>
<stop offset="1" stop-color="#5A5C5C"/>
</linearGradient>
<linearGradient id="paint47_linear_16_261" x1="36.0003" y1="42.0694" x2="42.8962" y2="42.0378" gradientUnits="userSpaceOnUse">
<stop stop-color="#4A4F4C"/>
<stop offset="1" stop-color="#E0E1E3"/>
</linearGradient>
<linearGradient id="paint48_linear_16_261" x1="36.2165" y1="42.0508" x2="42.6775" y2="42.0557" gradientUnits="userSpaceOnUse">
<stop stop-color="#CBCCCE"/>
<stop offset="1" stop-color="#060907"/>
</linearGradient>
<linearGradient id="paint49_linear_16_261" x1="42.3056" y1="41.5394" x2="36.4705" y2="42.4674" gradientUnits="userSpaceOnUse">
<stop stop-color="#4A4F4C"/>
<stop offset="1" stop-color="#E0E1E3"/>
</linearGradient>
<linearGradient id="paint50_linear_16_261" x1="41.157" y1="41.2041" x2="37.8003" y2="43.0549" gradientUnits="userSpaceOnUse">
<stop stop-color="#E0E1E3"/>
<stop offset="1" stop-color="#4A4F4C"/>
</linearGradient>
<linearGradient id="paint51_linear_16_261" x1="43.1712" y1="33.5833" x2="50.0671" y2="33.5518" gradientUnits="userSpaceOnUse">
<stop stop-color="#4A4F4C"/>
<stop offset="1" stop-color="#E0E1E3"/>
</linearGradient>
<linearGradient id="paint52_linear_16_261" x1="43.3872" y1="33.5647" x2="49.8481" y2="33.5697" gradientUnits="userSpaceOnUse">
<stop stop-color="#CBCCCE"/>
<stop offset="1" stop-color="#060907"/>
</linearGradient>
<linearGradient id="paint53_linear_16_261" x1="49.4764" y1="33.0534" x2="43.6413" y2="33.9814" gradientUnits="userSpaceOnUse">
<stop stop-color="#4A4F4C"/>
<stop offset="1" stop-color="#E0E1E3"/>
</linearGradient>
<linearGradient id="paint54_linear_16_261" x1="48.4136" y1="34.2671" x2="44.836" y2="32.8911" gradientUnits="userSpaceOnUse">
<stop stop-color="#E0E1E3"/>
<stop offset="1" stop-color="#4A4F4C"/>
</linearGradient>
<linearGradient id="paint55_linear_16_261" x1="27.959" y1="19.3119" x2="22.2816" y2="26.0302" gradientUnits="userSpaceOnUse">
<stop stop-color="#0B0C0C"/>
<stop offset="0.05" stop-color="#0E0F0F"/>
<stop offset="0.1" stop-color="#191A1A"/>
<stop offset="0.14" stop-color="#2B2D2C"/>
<stop offset="0.19" stop-color="#444746"/>
<stop offset="0.23" stop-color="#656967"/>
<stop offset="0.24" stop-color="#6D716F"/>
<stop offset="0.71" stop-color="#FDFEFF"/>
<stop offset="0.73" stop-color="#F9FAFB"/>
<stop offset="0.75" stop-color="#EFF0F0"/>
<stop offset="0.77" stop-color="#DDDEDE"/>
<stop offset="0.79" stop-color="#C4C5C5"/>
<stop offset="0.8" stop-color="#A4A5A4"/>
<stop offset="0.81" stop-color="#939493"/>
<stop offset="0.94" stop-color="#BDBEBE"/>
</linearGradient>
<linearGradient id="paint56_linear_16_261" x1="19.3532" y1="9.41298" x2="11.0862" y2="19.1957" gradientUnits="userSpaceOnUse">
<stop stop-color="#0B0C0C"/>
<stop offset="0.06" stop-color="#0E0F0F"/>
<stop offset="0.12" stop-color="#191A1A"/>
<stop offset="0.18" stop-color="#2B2D2C"/>
<stop offset="0.23" stop-color="#444745"/>
<stop offset="0.24" stop-color="#4C4F4D"/>
<stop offset="0.71" stop-color="#E1E2E3"/>
<stop offset="0.73" stop-color="#DDDEDF"/>
<stop offset="0.75" stop-color="#D3D4D4"/>
<stop offset="0.77" stop-color="#C1C2C2"/>
<stop offset="0.78" stop-color="#A8A9A9"/>
<stop offset="0.8" stop-color="#888A88"/>
<stop offset="0.81" stop-color="#6F716F"/>
<stop offset="0.94" stop-color="#9D9E9E"/>
</linearGradient>
<linearGradient id="paint57_linear_16_261" x1="19.3532" y1="9.41298" x2="11.0862" y2="19.1957" gradientUnits="userSpaceOnUse">
<stop stop-color="#0B0C0C"/>
<stop offset="0.06" stop-color="#0E0F0F"/>
<stop offset="0.12" stop-color="#191A1A"/>
<stop offset="0.18" stop-color="#2B2D2C"/>
<stop offset="0.23" stop-color="#444745"/>
<stop offset="0.24" stop-color="#4C4F4D"/>
<stop offset="0.71" stop-color="#E1E2E3"/>
<stop offset="0.73" stop-color="#DDDEDF"/>
<stop offset="0.75" stop-color="#D3D4D4"/>
<stop offset="0.77" stop-color="#C1C2C2"/>
<stop offset="0.78" stop-color="#A8A9A9"/>
<stop offset="0.8" stop-color="#888A88"/>
<stop offset="0.81" stop-color="#6F716F"/>
<stop offset="0.94" stop-color="#9D9E9E"/>
</linearGradient>
<linearGradient id="paint58_linear_16_261" x1="19.2099" y1="10.3011" x2="11.8393" y2="19.023" gradientUnits="userSpaceOnUse">
<stop stop-color="#0B0C0C"/>
<stop offset="0.1" stop-color="#0E0F0F"/>
<stop offset="0.2" stop-color="#191A1A"/>
<stop offset="0.29" stop-color="#2B2D2D"/>
<stop offset="0.38" stop-color="#444647"/>
<stop offset="0.47" stop-color="#656769"/>
<stop offset="0.54" stop-color="#898C8E"/>
<stop offset="0.72" stop-color="#6A6E6F"/>
<stop offset="1" stop-color="#3F4444"/>
</linearGradient>
<linearGradient id="paint59_linear_16_261" x1="8.97955" y1="0.648313" x2="0.7125" y2="10.431" gradientUnits="userSpaceOnUse">
<stop stop-color="#4C4F4D"/>
<stop offset="1" stop-color="#E1E2E3"/>
</linearGradient>
<linearGradient id="paint60_linear_16_261" x1="7.5315" y1="1.64562" x2="1.45571" y2="8.83533" gradientUnits="userSpaceOnUse">
<stop stop-color="#0B0C0C"/>
<stop offset="0.05" stop-color="#0E0F0F"/>
<stop offset="0.1" stop-color="#191A1A"/>
<stop offset="0.14" stop-color="#2B2D2C"/>
<stop offset="0.19" stop-color="#444746"/>
<stop offset="0.23" stop-color="#656967"/>
<stop offset="0.24" stop-color="#6D716F"/>
<stop offset="0.71" stop-color="#FDFEFF"/>
<stop offset="0.73" stop-color="#F9FAFB"/>
<stop offset="0.75" stop-color="#EFF0F0"/>
<stop offset="0.77" stop-color="#DDDEDE"/>
<stop offset="0.79" stop-color="#C4C5C5"/>
<stop offset="0.8" stop-color="#A4A5A4"/>
<stop offset="0.81" stop-color="#939493"/>
<stop offset="0.94" stop-color="#BDBEBE"/>
</linearGradient>
<linearGradient id="paint61_linear_16_261" x1="6.47045" y1="0.749324" x2="0.394663" y2="7.93904" gradientUnits="userSpaceOnUse">
<stop stop-color="#4C4F4D"/>
<stop offset="1" stop-color="#E1E2E3"/>
</linearGradient>
</defs>
</svg>
