<svg width="29" height="30" viewBox="0 0 29 30" fill="none" xmlns="http://www.w3.org/2000/svg">
<path fill-rule="evenodd" clip-rule="evenodd" d="M24.8054 0.807896C25.1101 0.624621 25.4739 0.566493 25.8206 0.645712C26.1672 0.724932 26.4696 0.935338 26.6644 1.23277L28.0257 3.30902C28.2031 3.58026 28.2791 3.90546 28.2401 4.22723C28.2011 4.549 28.0497 4.84665 27.8126 5.06765L27.8084 5.07315L27.7892 5.09102L27.7108 5.1639L27.4014 5.45952C25.6896 7.12005 24.0297 8.83321 22.4239 10.5965C19.4031 13.9185 15.8157 18.2663 13.4012 22.4848C12.7274 23.6618 11.0816 23.9148 10.1053 22.8986L1.18844 13.6339C1.06066 13.5011 0.960881 13.3439 0.895042 13.1718C0.829203 12.9996 0.798646 12.816 0.805188 12.6318C0.811729 12.4476 0.855236 12.2666 0.933122 12.0995C1.01101 11.9325 1.12168 11.7828 1.25857 11.6594L3.95357 9.2284C4.1904 9.01487 4.49408 8.8903 4.81264 8.876C5.13119 8.86171 5.44481 8.95857 5.69982 9.15002L10.2497 12.5614C17.3571 5.55302 21.3872 2.86352 24.8054 0.807896Z" fill="#22CC13"/>
</svg>
