<svg width="43" height="43" viewBox="0 0 43 43" fill="none" xmlns="http://www.w3.org/2000/svg">
<g clip-path="url(#clip0_21_9575)">
<rect width="43" height="43" rx="8" fill="#18A1F7" fill-opacity="0.1"/>
<path d="M3.308 30.6481L10.364 9.78807H16.132L23.188 30.6481H18.456L17.056 26.3921H9.412L8.012 30.6481H3.308ZM10.616 22.6121H15.852L12.66 12.7561H13.836L10.616 22.6121ZM27.8198 30.9841C26.7185 30.9841 25.7665 30.8067 24.9638 30.4521C24.1611 30.0974 23.5451 29.5934 23.1158 28.9401C22.6865 28.2681 22.4718 27.4747 22.4718 26.5601C22.4718 25.7014 22.6678 24.9454 23.0598 24.2921C23.4518 23.6201 24.0491 23.0601 24.8518 22.6121C25.6731 22.1641 26.6905 21.8467 27.9038 21.6601L32.5798 20.9041V23.9841L28.6598 24.6841C28.0625 24.7961 27.6051 24.9921 27.2878 25.2721C26.9705 25.5334 26.8118 25.9161 26.8118 26.4201C26.8118 26.8867 26.9891 27.2507 27.3438 27.5121C27.6985 27.7734 28.1371 27.9041 28.6598 27.9041C29.3505 27.9041 29.9571 27.7547 30.4798 27.4561C31.0025 27.1574 31.4038 26.7561 31.6838 26.2521C31.9825 25.7294 32.1318 25.1601 32.1318 24.5441V20.5681C32.1318 19.9894 31.8985 19.5041 31.4318 19.1121C30.9838 18.7201 30.3678 18.5241 29.5838 18.5241C28.8371 18.5241 28.1745 18.7294 27.5958 19.1401C27.0358 19.5507 26.6251 20.0921 26.3638 20.7641L23.0038 19.1681C23.3025 18.3094 23.7785 17.5721 24.4318 16.9561C25.0851 16.3401 25.8691 15.8641 26.7838 15.5281C27.6985 15.1921 28.6971 15.0241 29.7798 15.0241C31.0678 15.0241 32.2065 15.2574 33.1958 15.7241C34.1851 16.1907 34.9505 16.8441 35.4918 17.6841C36.0518 18.5054 36.3318 19.4667 36.3318 20.5681V30.6481H32.4118V28.1841L33.3638 28.0161C32.9158 28.6881 32.4211 29.2481 31.8798 29.6961C31.3385 30.1254 30.7318 30.4427 30.0598 30.6481C29.3878 30.8721 28.6411 30.9841 27.8198 30.9841Z" fill="#18A1F7"/>
</g>
<defs>
<clipPath id="clip0_21_9575">
<rect width="43" height="43" rx="8" fill="white"/>
</clipPath>
</defs>
</svg>
