<svg width="26" height="27" viewBox="0 0 26 27" fill="none" xmlns="http://www.w3.org/2000/svg">
<path d="M10.9929 1.80358C12.2341 1.08357 13.7659 1.08357 15.0071 1.80358L18.6225 3.90083L22.2465 5.98323C23.4906 6.69814 24.2565 8.02471 24.2536 9.45963L24.245 13.6393L24.2536 17.8189C24.2565 19.2539 23.4906 20.5804 22.2465 21.2953L18.6225 23.3777L15.0071 25.475C13.7659 26.195 12.2341 26.195 10.9929 25.475L7.3775 23.3777L3.75353 21.2953C2.50938 20.5804 1.74349 19.2539 1.74643 17.8189L1.755 13.6393L1.74643 9.45963C1.74349 8.02471 2.50938 6.69814 3.75353 5.98323L7.3775 3.90083L10.9929 1.80358Z" fill="#FFD54B"/>
<g clip-path="url(#clip0_86_9105)">
<path d="M13 10.3893L15.1667 13.6393L17.875 11.4726L16.7917 16.8893H9.20833L8.125 11.4726L10.8333 13.6393L13 10.3893Z" fill="white" stroke="white" stroke-width="1.5" stroke-linecap="round" stroke-linejoin="round"/>
</g>
<defs>
<clipPath id="clip0_86_9105">
<rect width="13" height="13" fill="white" transform="translate(6.5 7.13928)"/>
</clipPath>
</defs>
</svg>
