<svg width="47" height="52" viewBox="0 0 47 52" fill="none" xmlns="http://www.w3.org/2000/svg">
<g clip-path="url(#clip0_16_254)">
<g filter="url(#filter0_d_16_254)">
<path d="M9.00498 6.63342C6.36765 6.63342 4.2272 8.77387 4.2272 11.4112V15.8526C4.22822 16.8745 4.50231 17.8775 5.02111 18.7578C5.5399 19.6381 6.28454 20.3638 7.17796 20.8597L18.1707 26.9715C15.8682 28.1339 14.0248 30.0386 12.9384 32.378C11.852 34.7173 11.5861 37.3546 12.1835 39.8637C12.781 42.3729 14.2069 44.6073 16.231 46.206C18.2551 47.8048 20.759 48.6744 23.3383 48.6744C25.9176 48.6744 28.4216 47.8048 30.4457 46.206C32.4697 44.6073 33.8957 42.3729 34.4931 39.8637C35.0906 37.3546 34.8246 34.7173 33.7382 32.378C32.6519 30.0386 30.8085 28.1339 28.506 26.9715L39.5025 20.8636C40.3958 20.3668 41.14 19.6403 41.6582 18.7593C42.1763 17.8783 42.4495 16.8747 42.4494 15.8526V11.4112C42.4494 8.77387 40.309 6.63342 37.6717 6.63342H9.00498ZM19.5161 23.3442V10.4556H27.1605V23.3442L23.3383 25.4693L19.5161 23.3442ZM30.9828 37.2112C30.9828 39.2387 30.1774 41.183 28.7438 42.6167C27.3102 44.0503 25.3658 44.8557 23.3383 44.8557C21.3109 44.8557 19.3665 44.0503 17.9329 42.6167C16.4993 41.183 15.6939 39.2387 15.6939 37.2112C15.6939 35.1838 16.4993 33.2394 17.9329 31.8058C19.3665 30.3722 21.3109 29.5668 23.3383 29.5668C25.3658 29.5668 27.3102 30.3722 28.7438 31.8058C30.1774 33.2394 30.9828 35.1838 30.9828 37.2112Z" fill="white"/>
</g>
</g>
<defs>
<filter id="filter0_d_16_254" x="4.2272" y="6.63342" width="38.2222" height="44.455" filterUnits="userSpaceOnUse" color-interpolation-filters="sRGB">
<feFlood flood-opacity="0" result="BackgroundImageFix"/>
<feColorMatrix in="SourceAlpha" type="matrix" values="0 0 0 0 0 0 0 0 0 0 0 0 0 0 0 0 0 0 127 0" result="hardAlpha"/>
<feOffset dy="2.41404"/>
<feComposite in2="hardAlpha" operator="out"/>
<feColorMatrix type="matrix" values="0 0 0 0 0 0 0 0 0 0 0 0 0 0 0 0 0 0 0.25 0"/>
<feBlend mode="normal" in2="BackgroundImageFix" result="effect1_dropShadow_16_254"/>
<feBlend mode="normal" in="SourceGraphic" in2="effect1_dropShadow_16_254" result="shape"/>
</filter>
<clipPath id="clip0_16_254">
<rect width="45.8667" height="50.6948" fill="white" transform="translate(0.855835 0.458252)"/>
</clipPath>
</defs>
</svg>
